<svg xmlns="http://www.w3.org/2000/svg" width="20.2" height="19.674" viewBox="0 0 20.2 19.674">
    <path id="icons8-chat-message-sent" fill="#3e89ec" stroke="#3e89ec" stroke-width="0.2px" d="M17.483 0a5.535 5.535 0 0 0-5.109 3.448H3v12.414h3.448v3.5l4.38-3.5h10.1V9.813A5.51 5.51 0 0 0 17.483 0zm0 1.379a4.138 4.138 0 1 1-4.138 4.138 4.15 4.15 0 0 1 4.138-4.138zm2.069 2.276l-2.277 2.276-1.585-1.586-.966.964 2.551 2.553 3.243-3.242zM4.379 4.828h7.635a5.5 5.5 0 0 0 7.538 5.8v3.856h-9.208L7.828 16.5v-2.017H4.379z" transform="translate(-2.9 .1)"/>
</svg>
