<svg xmlns="http://www.w3.org/2000/svg" xmlns:xlink="http://www.w3.org/1999/xlink" width="981.747" height="715.858" viewBox="0 0 981.747 715.858"><defs><style>.a{opacity:0.04;fill:url(#a);}</style><linearGradient id="a" x1="0.972" y1="0.908" x2="0.081" y2="0.011" gradientUnits="objectBoundingBox"><stop offset="0" stop-color="#93c2ff"/><stop offset="1" stop-color="#0058cb"/></linearGradient></defs><path class="a" d="M475.582,98.229C435.675,82.412,393.5,69.2,350.455,70.862c-63.3,2.435-124.059,39.55-153.815,94.049-25.246,46.175-28.362,100.3-39.237,151.539-13.384,63.124-39.065,123.134-66.485,181.8-14.724,31.52-30.263,63.719-32.681,98.268-3.35,47.968,20.166,95.767,57.049,127.673s85.863,48.742,135.025,52.413c26.161,1.953,53.5.142,76.736-11.73,24.585-12.561,42.506-35.257,67.191-47.638,22.874-11.475,49.633-13.08,75.314-11.589a344.734,344.734,0,0,1,98.324,20.384c35.9,13.136,69.274,32.171,105.043,45.5s75.83,20.761,112.432,9.644c34.411-10.447,61.577-35.813,86.072-61.5a1080.232,1080.232,0,0,0,109.77-135.317c22.1-32.284,42.678-66.342,52.449-103.967,18.691-71.938-7.027-153.1-64.067-202.226-47.26-40.7-110.684-58.368-172.768-69.088C740.19,199.3,674.729,198.7,622.615,173.215,572.919,148.887,527.7,118.9,475.582,98.229Z" transform="translate(-57.92 -70.72)"/></svg>