<svg xmlns="http://www.w3.org/2000/svg" xmlns:xlink="http://www.w3.org/1999/xlink" width="791.706" height="756.005" viewBox="0 0 791.706 756.005"><defs><style>.a{opacity:0.04;fill:url(#a);}</style><linearGradient id="a" y1="1" x2="0.983" gradientUnits="objectBoundingBox"><stop offset="0" stop-color="#93c2ff"/><stop offset="1" stop-color="#0058cb"/></linearGradient></defs><path class="a" d="M502.379-50.681c53.138,30.34,88.256,94.936,123.836,159.532,35.118,64.6,70.7,129.191,78.552,198.681s-12.014,143.383-62.842,179.6c-51.29,35.723-133.539,32.787-194.533,68.021-60.532,35.234-99.808,107.659-145.553,120.872-46.207,13.213-99.346-33.766-135.85-83.681S110.079,489.084,68.03,440.148C25.982,391.7-38.709,347.17-67.357,285.021S-89.075,143.106-55.343,79.489C-21.612,15.383,39.382-32.575,104.534-55.575S239-76.128,309.232-77.106C379.005-78.085,449.7-81.511,502.379-50.681Z" transform="translate(85.278 77.727)"/></svg>