<svg xmlns="http://www.w3.org/2000/svg" xmlns:xlink="http://www.w3.org/1999/xlink" width="1086.318" height="1012.377" viewBox="0 0 1086.318 1012.377"><defs><style>.a{opacity:0.04;fill:url(#a);}</style><linearGradient id="a" x1="0.974" y1="0.956" x2="0.081" y2="0.011" gradientUnits="objectBoundingBox"><stop offset="0" stop-color="#93c2ff"/><stop offset="1" stop-color="#0058cb"/></linearGradient></defs><path class="a" d="M281.906,57.606c-35.59-7.306-76.3-8.336-104.966,12.073-27.584,19.631-36.518,53.555-41.31,84.969-3.609,23.659-5.729,48.563,4.152,70.714,6.867,15.379,19.043,28.3,27.47,43.028,29.318,51.261,8.593,114.463-23.169,164.506-14.891,23.471-32.191,45.894-43.693,70.855s-16.818,53.621-6.754,79.115c9.968,25.288,33.733,44.245,59.477,57.592,52.286,27.115,113.874,34.87,173.973,39.272,133,9.722,266.693,5.517,400.04,1.293,49.351-1.555,98.913-3.138,147.458-11.3,26.962-4.533,54.791-11.726,74.369-29.091,24.842-22.038,31-59.353,14.348-86.992-27.925-46.353-105.115-57.864-124.657-107.607-10.739-27.386.289-57.882,15.907-83.274,33.5-54.482,89.636-102.278,92.588-164.543,2.032-42.766-24.956-85.6-66.686-105.837-43.736-21.214-93.488-18.364-185.377-5.575S429.851,126.678,281.906,57.606Z" transform="matrix(0.839, 0.545, -0.545, 0.839, 299.37, -92.4)"/></svg>