<svg xmlns="http://www.w3.org/2000/svg" xmlns:xlink="http://www.w3.org/1999/xlink" width="874.242" height="788.268" viewBox="0 0 874.242 788.268"><defs><style>.a{opacity:0.04;fill:url(#a);}</style><linearGradient id="a" y1="1" x2="0.983" gradientUnits="objectBoundingBox"><stop offset="0" stop-color="#93c2ff"/><stop offset="1" stop-color="#0058cb"/></linearGradient></defs><path class="a" d="M563.643,682.341C622.321,650.706,661.1,583.353,700.389,516c38.779-67.352,78.068-134.7,86.742-207.159s-13.266-149.5-69.393-187.26C661.1,84.334,570.276,87.4,502.924,50.658,436.082,13.92,392.711-61.6,342.2-75.373c-51.024-13.777-109.7,35.207-150.012,87.252S130.445,119.541,84.013,170.565C37.58,221.079-33.854,267.512-65.489,332.313s-23.982,147.971,13.266,214.3c37.248,66.842,104.6,116.846,176.545,140.828s148.481,21.43,226.038,22.451C427.408,710.915,505.475,714.486,563.643,682.341Z" transform="translate(85.278 77.727)"/></svg>