<svg xmlns="http://www.w3.org/2000/svg" xmlns:xlink="http://www.w3.org/1999/xlink" width="480" height="356.561" viewBox="0 0 480 356.561"><defs><style>.a{fill:#f2f4f9;}.b{fill:#fff;}.c{fill:#797c9c;}.d{opacity:0.05;}.e{fill:#d5d9e6;}.f,.q{fill:#3e89ec;}.g,.h{fill:none;stroke:#535461;stroke-miterlimit:10;}.h{stroke-width:2px;}.i{opacity:0.25;}.j{fill:#ffb9b9;}.k{fill:#8e94a7;}.l{fill:url(#e);}.m{fill:#e4e2f3;}.n{fill:#4c4c78;}.o,.q,.u{opacity:0.1;}.p{fill:#333;}.r{fill:url(#f);}.s{fill:url(#g);}.t{fill:url(#h);}.v{fill:url(#i);}.w{fill:url(#j);}.x{fill:url(#k);}.y{fill:url(#l);}.z{fill:url(#m);}.aa{fill:url(#n);}.ab{fill:url(#o);}.ac{fill:url(#p);}.ad{fill:url(#q);}.ae{fill:url(#r);}.af{fill:url(#s);}.ag{fill:url(#t);}.ah{fill:url(#u);}.ai{fill:url(#v);}.aj{fill:url(#w);}.ak{fill:url(#x);}.al{fill:url(#y);}.am{fill:url(#z);}.an{fill:url(#aa);}.ao{fill:url(#ab);}.ap{fill:url(#ac);}.aq{fill:url(#ad);}.ar{fill:url(#ae);}.as{fill:url(#af);}.at{fill:url(#ag);}.au{fill:url(#ah);}.av{fill:url(#ai);}.aw{fill:url(#aj);}.ax{fill:url(#ak);}.ay{fill:url(#al);}.az{fill:url(#am);}.ba{fill:url(#an);}.bb{fill:#efb7b9;}.bc{fill:#444053;}.bd{fill:#e3787d;}.be{filter:url(#c);}.bf{filter:url(#a);}</style><filter id="a" x="71" y="36" width="374" height="244" filterUnits="userSpaceOnUse"><feOffset dy="3" input="SourceAlpha"/><feGaussianBlur stdDeviation="4" result="b"/><feFlood flood-opacity="0.102"/><feComposite operator="in" in2="b"/><feComposite in="SourceGraphic"/></filter><filter id="c" x="327.499" y="152.365" width="112" height="134.024" filterUnits="userSpaceOnUse"><feOffset dy="3" input="SourceAlpha"/><feGaussianBlur stdDeviation="3" result="d"/><feFlood flood-opacity="0.161"/><feComposite operator="in" in2="d"/><feComposite in="SourceGraphic"/></filter><linearGradient id="e" x1="0.5" y1="1" x2="0.5" gradientUnits="objectBoundingBox"><stop offset="0" stop-color="gray" stop-opacity="0.251"/><stop offset="0.54" stop-color="gray" stop-opacity="0.122"/><stop offset="1" stop-color="gray" stop-opacity="0.102"/></linearGradient><linearGradient id="f" x1="0.5" y1="1" x2="0.5" y2="0" xlink:href="#e"/><linearGradient id="g" x1="0.5" y1="1" x2="0.5" y2="-0.001" xlink:href="#e"/><linearGradient id="h" x1="0.499" y1="1" x2="0.499" y2="-0.001" xlink:href="#e"/><linearGradient id="i" x1="0.5" y1="1" x2="0.5" y2="0" xlink:href="#e"/><linearGradient id="j" x1="0.5" y1="1" x2="0.5" y2="0" xlink:href="#e"/><linearGradient id="k" x1="0.5" y1="1" x2="0.5" y2="0" xlink:href="#e"/><linearGradient id="l" x1="0.5" y1="0.995" x2="0.5" y2="0" xlink:href="#e"/><linearGradient id="m" x1="0.5" y1="0.999" x2="0.5" y2="0.001" xlink:href="#e"/><linearGradient id="n" x1="0.5" y1="0.998" x2="0.5" y2="0" xlink:href="#e"/><linearGradient id="o" x1="0.5" y1="1" x2="0.5" y2="0" xlink:href="#e"/><linearGradient id="p" x1="0.5" y1="1" x2="0.5" y2="0" xlink:href="#e"/><linearGradient id="q" x1="0.5" y1="1" x2="0.5" y2="0" xlink:href="#e"/><linearGradient id="r" x1="0.5" y1="0.999" x2="0.5" y2="-0.001" xlink:href="#e"/><linearGradient id="s" x1="0.5" y1="1" x2="0.5" y2="0" xlink:href="#e"/><linearGradient id="t" x1="0.5" y1="1" x2="0.5" y2="-0.002" xlink:href="#e"/><linearGradient id="u" x1="0.5" y1="0.998" x2="0.5" y2="-0.002" xlink:href="#e"/><linearGradient id="v" x1="0.498" y1="1" x2="0.498" y2="0" xlink:href="#e"/><linearGradient id="w" x1="0.499" y1="0.999" x2="0.499" y2="-0.002" xlink:href="#e"/><linearGradient id="x" x1="0.5" y1="1" x2="0.5" y2="0.001" xlink:href="#e"/><linearGradient id="y" x1="0.5" y1="1" x2="0.5" y2="0" xlink:href="#e"/><linearGradient id="z" x1="0.498" y1="1.001" x2="0.498" y2="0" xlink:href="#e"/><linearGradient id="aa" x1="0.498" y1="1" x2="0.498" y2="0" xlink:href="#e"/><linearGradient id="ab" x1="0.511" y1="1.001" x2="0.511" y2="0" xlink:href="#e"/><linearGradient id="ac" x1="0.5" y1="1.001" x2="0.5" y2="0.006" xlink:href="#e"/><linearGradient id="ad" x1="0.5" y1="1" x2="0.5" y2="0" xlink:href="#e"/><linearGradient id="ae" x1="0.5" y1="0.984" x2="0.5" y2="0" xlink:href="#e"/><linearGradient id="af" x1="0.5" y1="1" x2="0.5" y2="0" xlink:href="#e"/><linearGradient id="ag" x1="0.5" y1="1" x2="0.5" y2="0" xlink:href="#e"/><linearGradient id="ah" x1="0.497" y1="1" x2="0.497" y2="0" xlink:href="#e"/><linearGradient id="ai" x1="0.499" y1="1" x2="0.499" y2="0" xlink:href="#e"/><linearGradient id="aj" x1="0.5" y1="0.999" x2="0.5" y2="-0.001" xlink:href="#e"/><linearGradient id="ak" x1="0.501" y1="1" x2="0.501" y2="0" xlink:href="#e"/><linearGradient id="al" x1="0.501" y1="1" x2="0.501" y2="0" xlink:href="#e"/><linearGradient id="am" x1="0.5" y1="1.001" x2="0.5" y2="0" xlink:href="#e"/><linearGradient id="an" x1="0.5" y1="1.001" x2="0.5" y2="0.001" xlink:href="#e"/></defs><g transform="translate(-470 -1590)"><path class="a" d="M113.158,304.474c-5.712.941-12.875,3.634-12.808,9.893.033,3.176,2.113,5.883,4.136,8.2a154.432,154.432,0,0,0,29.191,26.143c5.15,3.538,10.685,6.921,14.107,12.389s4.284,12.427,4.555,19.049a148.35,148.35,0,0,1-5.4,46.451c16.768,3.238,35.468,6.076,49.443-4.15,8.367-6.124,14.027-16.385,23.351-20.632,6.226-2.838,13.275-2.587,20.062-2.225q48.191,2.572,96.144,9.652c13.389,1.979,27.035,4.218,40.28,1.66s26.278-10.9,31.161-24.43c.752-2.085,1.428-4.411,3.113-5.666,1.523-1.12,3.517-1.1,5.369-1.028l111.888,3.9c6.13.212,12.475.386,18.086-2.172,5.44-2.476,9.624-7.239,13.651-11.906,9.21-10.646,19.115-23.744,16.406-38.194-2.166-11.583-11.847-19.676-21.447-25.342s-20.19-10.3-27.244-19.362c-10.733-13.788-10.309-33.522-10.976-51.412a289.39,289.39,0,0,0-5.878-48.179c-2.908-13.943-6.959-27.9-14.531-39.68s-19.153-21.206-32.251-22.934c-17.106-2.259-34.3,8.561-51.037,3.967-14.136-3.861-23.865-17.581-35.578-27.089-20.8-16.891-48.105-20.429-73.917-20.752-27.368-.352-55.459,2.456-79.852,15.487-5.588,2.983-11.052,6.592-14.921,11.863-5.93,8.084-7.368,18.942-11.247,28.392-15.635,38.049-66.487,46.253-82.993,83.9-5.859,13.354-5.8,28.928-1.533,42.952,4.593,15.091,17.52,23.426,22.646,36.582C129.621,303.4,119.845,303.368,113.158,304.474Z" transform="translate(373.651 1509.398)"/><g class="bf" transform="matrix(1, 0, 0, 1, 470, 1590)"><rect class="b" width="350" height="220" rx="7" transform="translate(83 45)"/></g><path class="c" d="M988.724,428.25s-4.952,2.857-3.427,6.858c0,0,5.145,1.525,7.239,5.333s18.286,17.523,18.286,17.523l11.824-5.9s-4.107-5.482-17.1-9.314c0,0-7.659-8.2-10.328-9.734A57.785,57.785,0,0,1,988.724,428.25Z" transform="translate(-89.704 1329.528)"/><path class="d" d="M993.724,433.25s-4.952,2.857-3.427,6.858c0,0,5.145,1.525,7.239,5.333s18.286,17.523,18.286,17.523l11.824-5.9s-4.107-5.482-17.1-9.314c0,0-7.659-8.2-10.328-9.734A57.782,57.782,0,0,1,993.724,433.25Z" transform="translate(-92.291 1326.941)"/><rect class="a" width="180.018" height="13.006" rx="4" transform="translate(565.158 1677)"/><rect class="a" width="180.018" height="13.006" rx="4" transform="translate(565.158 1743.695)"/><rect class="a" width="180.018" height="13.006" rx="4" transform="translate(565.158 1760.695)"/><rect class="a" width="180.018" height="46.006" rx="4" transform="translate(565.158 1693.695)"/><rect class="a" width="180.018" height="46.006" rx="4" transform="translate(565.158 1777.695)"/><g transform="translate(780 1677)"><rect class="e" width="94" height="116" rx="7"/></g><path class="f" d="M107.142,721.846s-27.827,16.79,23.469,42.639c0,0,11.3-20.984-1.192-38.092a16.848,16.848,0,0,0-21.857-4.787Z" transform="translate(370.394 1178.861)"/><path class="g" d="M115.88,723.67s23.817,18.218,23.165,42.991" transform="translate(361.974 1176.681)"/><path class="h" d="M162.956,712.075s-8.721-29.627,1.622-51.4a46.765,46.765,0,0,0,3.784-29.338,78.663,78.663,0,0,0-4.155-13.769" transform="translate(339.396 1231.576)"/><path class="f" d="M168.527,581.956c0,3.629-6.568,14.15-6.568,14.15s-6.568-10.521-6.568-14.15a6.571,6.571,0,1,1,13.141,0Z" transform="translate(341.532 1253.402)"/><path class="f" d="M190.954,619.813c-1.974,3.045-13.2,8.306-13.2,8.306s.2-12.4,2.177-15.443a6.569,6.569,0,1,1,11.028,7.143Z" transform="translate(329.963 1235.66)"/><path class="f" d="M187.413,688.48c-3.238,1.636-15.593.483-15.593.483s6.438-10.617,9.676-12.239a6.57,6.57,0,0,1,5.917,11.732Z" transform="translate(333.031 1201.335)"/><path class="f" d="M174.874,742.813c-2.9,2.157-15.284,3.132-15.284,3.132s4.551-11.539,7.471-13.7a6.57,6.57,0,1,1,7.813,10.564Z" transform="translate(339.358 1172.908)"/><path class="f" d="M147.021,637.249c2.6,2.529,14.729,5.149,14.729,5.149s-2.968-12.065-5.574-14.575a6.575,6.575,0,1,0-9.17,9.425Z" transform="translate(346.899 1227.234)"/><path class="f" d="M131.037,698.96c3.238,1.636,15.593.483,15.593.483s-6.438-10.617-9.676-12.239a6.57,6.57,0,0,0-5.917,11.732Z" transform="translate(356.001 1195.913)"/><path class="f" d="M126.6,762.713c2.9,2.157,15.284,3.132,15.284,3.132s-4.551-11.539-7.471-13.7a6.57,6.57,0,0,0-7.813,10.564Z" transform="translate(357.803 1162.612)"/><path class="i" d="M168.527,581.956c0,3.629-6.568,14.15-6.568,14.15s-6.568-10.521-6.568-14.15a6.571,6.571,0,1,1,13.141,0Z" transform="translate(341.532 1253.402)"/><path class="i" d="M190.954,619.813c-1.974,3.045-13.2,8.306-13.2,8.306s.2-12.4,2.177-15.443a6.569,6.569,0,1,1,11.028,7.143Z" transform="translate(329.963 1235.66)"/><path class="i" d="M187.413,688.48c-3.238,1.636-15.593.483-15.593.483s6.438-10.617,9.676-12.239a6.57,6.57,0,0,1,5.917,11.732Z" transform="translate(333.031 1201.335)"/><path class="i" d="M174.874,742.813c-2.9,2.157-15.284,3.132-15.284,3.132s4.551-11.539,7.471-13.7a6.57,6.57,0,1,1,7.813,10.564Z" transform="translate(339.358 1172.908)"/><path class="i" d="M147.021,637.249c2.6,2.529,14.729,5.149,14.729,5.149s-2.968-12.065-5.574-14.575a6.575,6.575,0,1,0-9.17,9.425Z" transform="translate(346.899 1227.234)"/><path class="i" d="M131.037,698.96c3.238,1.636,15.593.483,15.593.483s-6.438-10.617-9.676-12.239a6.57,6.57,0,0,0-5.917,11.732Z" transform="translate(356.001 1195.913)"/><path class="i" d="M126.6,762.713c2.9,2.157,15.284,3.132,15.284,3.132s-4.551-11.539-7.471-13.7a6.57,6.57,0,0,0-7.813,10.564Z" transform="translate(357.803 1162.612)"/><path class="h" d="M204.77,713.245s-8.721-29.608,1.636-51.4a46.765,46.765,0,0,0,3.784-29.338,78.667,78.667,0,0,0-4.155-13.769" transform="translate(317.76 1230.971)"/><path class="f" d="M210.337,583.156c0,3.629-6.568,14.15-6.568,14.15s-6.568-10.521-6.568-14.15a6.571,6.571,0,0,1,13.141,0Z" transform="translate(319.899 1252.781)"/><path class="f" d="M232.774,620.973c-1.974,3.045-13.2,8.306-13.2,8.306s.2-12.4,2.177-15.443a6.569,6.569,0,1,1,11.028,7.143Z" transform="translate(308.326 1235.06)"/><path class="f" d="M229.223,689.642c-3.238,1.636-15.593.483-15.593.483s6.438-10.617,9.676-12.239a6.581,6.581,0,0,1,5.917,11.756Z" transform="translate(311.399 1200.733)"/><path class="f" d="M216.684,743.983c-2.9,2.157-15.284,3.132-15.284,3.132s4.551-11.539,7.471-13.7a6.57,6.57,0,0,1,7.813,10.564Z" transform="translate(317.727 1172.303)"/><path class="f" d="M188.851,638.409c2.6,2.529,14.729,5.149,14.729,5.149s-2.968-12.065-5.574-14.575a6.575,6.575,0,1,0-9.17,9.425Z" transform="translate(325.257 1226.634)"/><path class="f" d="M172.847,700.12c3.238,1.636,15.593.483,15.593.483s-6.438-10.617-9.676-12.239a6.57,6.57,0,1,0-5.917,11.732Z" transform="translate(334.369 1195.313)"/><path class="f" d="M168.414,763.883c2.9,2.157,15.284,3.132,15.284,3.132s-4.551-11.539-7.471-13.7a6.57,6.57,0,0,0-7.813,10.564Z" transform="translate(336.171 1162.007)"/><rect class="f" width="459.927" height="3.378" transform="translate(481.84 1943.183)"/><g class="be" transform="matrix(1, 0, 0, 1, 470, 1590)"><rect class="f" width="94" height="116.024" rx="6" transform="translate(336.5 158.36)"/></g><rect class="b" width="19.304" height="19.304" rx="4" transform="translate(814.841 1758.547)"/><rect class="b" width="77.623" height="4" transform="translate(814.87 1796.435)"/><rect class="b" width="77.623" height="4" transform="translate(814.87 1804.435)"/><rect class="b" width="77.623" height="4" transform="translate(814.87 1812.435)"/><rect class="b" width="77.623" height="4" transform="translate(814.87 1820.435)"/><rect class="b" width="77.623" height="4" transform="translate(814.87 1828.435)"/><rect class="b" width="77.623" height="4" transform="translate(814.87 1836.435)"/><rect class="b" width="77.623" height="4" transform="translate(814.87 1844.435)"/><path class="j" d="M962.62,441.85s.372-7.418,8.166-6.694a1.332,1.332,0,0,1,1.052,1.93l-1.6,3.007Z" transform="translate(-76.122 1325.98)"/><circle class="f" cx="3.779" cy="3.779" r="3.779" transform="translate(557.605 1639.346)"/><circle class="a" cx="3.779" cy="3.779" r="3.779" transform="translate(567.672 1639.346)"/><circle class="a" cx="3.779" cy="3.779" r="3.779" transform="translate(577.744 1639.346)"/><rect class="k" width="14" height="14" rx="7" transform="translate(885 1639)"/><path class="l" d="M1026.076,460.476c-.6-3.069-1.762-6.071-1.791-9.2-.043-5.077,2.659-10.975-.893-14.724a16.714,16.714,0,0,1-2.5-2.49,5.484,5.484,0,0,1-.627-2.809c-.058-5.922,3.2-11.935,1.25-17.548a5.963,5.963,0,0,0-2.239-3.122,6.5,6.5,0,0,0-3.8-.849c-1.25,0-2.568.14-3.861.164a8.349,8.349,0,0,1-2.167-.285c-1.5-.425-2.765-1.4-4.247-1.887a6.939,6.939,0,0,0-2.413-.333c-3.243-.106-6.206,2.051-8.513,4.141a31.783,31.783,0,0,1-3.644,2.65c.193-.135-4.5,3.089-2.736,3.122a6.149,6.149,0,0,1,3.494,1.216,9.44,9.44,0,0,0,.482,10.946c-.767-.753-1.617-1.578-2.485-2.413-2.587-2.543-6.2-5.955-7.9-6.887a55.913,55.913,0,0,1-6.785-4.763s-5.188,2.9-3.591,6.916a16.149,16.149,0,0,1,2.225.873,4.166,4.166,0,0,0,.3,1.559,17.182,17.182,0,0,1,4.609,2.259,7.851,7.851,0,0,1,.444.69,35.918,35.918,0,0,0,5.463,5.844c1.844,1.848,4.271,4.059,6.689,6.187a13,13,0,0,0-1.631,4.343,5.356,5.356,0,0,1-.545-.251C985.078,441.9,976.7,442.1,976.7,442.1a17.507,17.507,0,0,1-8.378-11.906s-1.395-5-1-6.337H967.3l.179-.039,1.675-3.036a1.342,1.342,0,0,0-1.1-1.969c-8.166-.734-8.552,6.757-8.552,6.757h.072l-.024.063c1,4.8,1.8,4.416,1.6,8.257l3.19,8.45s.2,2.9,5.984,6.723a125.046,125.046,0,0,1,12.369,9.8s-3.489,1.824-2.2,10.178c1.583,10.212-.8,24.777-.8,24.777v9.411l.444-.121c-.058.314-.111.647-.169,1.009a53,53,0,0,0-.275,14.29c1.2,9.99,5.984,23.648,5.984,23.648a42.761,42.761,0,0,1,2.2,8.644,7.965,7.965,0,0,0,.511,2.22,17.454,17.454,0,0,1,1.4,6.665,46.93,46.93,0,0,0,3.074,16.848,44.543,44.543,0,0,1,3,9.9c-1.448,1.873-3.311,3.914-4.792,4.117-2.794.386-8.18.767-4.59,5.376a3.274,3.274,0,0,0,.415.439c-2.727.434-5.724,1.39-2.809,5.13,3.591,4.609,24.734,2.5,24.734,2.5s.135-2.563,0-5.376c1.482-.1,2.413-.193,2.413-.193s.6-11.139-1.993-12.485a5.6,5.6,0,0,0-1.4.338c-.28-1.54-.483-3.455-.627-4.87l1.028-.077v-.077h.063V564.363s-1.2-10.371-5.584-14.961a9.324,9.324,0,0,1-1.448-1.93l-.058-.121c.029-1.313.029-3.084,0-5.116l.063-.111c.077-.125.154-.237.227-.338a4.228,4.228,0,0,1,.328-.386l.063-.082h0s2.413-2.9,10.574-21.129c4.985-11.129,3.668-17.374,1.882-20.593-.376-1.448-1.163-4.691-2.147-10.246a40.164,40.164,0,0,1-.574-7.138,14.353,14.353,0,0,0,3.784.425,12.847,12.847,0,0,0,5.791-1.235c-1.3-1.9-2.664-4.131-2.008-6.317.743-2.49,3.687-3.634,5.386-5.642C1026.626,467.016,1026.679,463.551,1026.076,460.476Z" transform="translate(-76.507 1340.321)"/><path class="j" d="M1049.1,764.89s.569,8.378,1.525,9.334-8.571,1.525-8.571,1.525l1.332-10.859Z" transform="translate(-119.218 1155.354)"/><path class="d" d="M1049.1,764.89s.569,8.378,1.525,9.334-8.571,1.525-8.571,1.525l1.332-10.859Z" transform="translate(-119.218 1155.354)"/><path class="m" d="M1036.5,775.449s-1.332,0-6.1,2.476c0,0-3.238-.57-4.57-5.145,0,0-4,6.858-6.665,7.239s-7.809.763-4.382,5.333,23.619,2.476,23.619,2.476S1038.972,776.781,1036.5,775.449Z" transform="translate(-104.523 1151.271)"/><path class="d" d="M1036.5,775.449s-1.332,0-6.1,2.476c0,0-3.238-.57-4.57-5.145,0,0-4,6.858-6.665,7.239s-7.809.763-4.382,5.333,23.619,2.476,23.619,2.476S1038.972,776.781,1036.5,775.449Z" transform="translate(-104.523 1151.271)"/><path class="j" d="M1044.251,784.274l-1.332,3.62-8.759-2.476.483-3.591.121-.869.333-2.413s7.427-1.906,7.427-.965a14.774,14.774,0,0,0,.483,2.321c.3,1.173.685,2.5.965,3.378C1044.135,783.893,1044.251,784.274,1044.251,784.274Z" transform="translate(-115.136 1148.923)"/><path class="n" d="M1034.234,640.574a5.207,5.207,0,0,0,0,5.309,9.225,9.225,0,0,0,1.371,1.9c4.189,4.57,5.333,14.855,5.333,14.855V679.2l-2.857.217-4.57.352-6.858-28.189s-4-20.569-2.094-24.188,3.62-26.283,3.62-26.283l1.583-1.636,3.75-3.885h10.859a7.3,7.3,0,0,1,2.114,2.36c1.824,3.016,3.46,9.29-1.539,20.873-7.809,18.093-10.1,20.95-10.1,20.95a4.386,4.386,0,0,0-.613.8Z" transform="translate(-109.901 1242.948)"/><path class="d" d="M1034.364,640.4a5.207,5.207,0,0,0,0,5.309,9.226,9.226,0,0,0,1.37,1.9c4.189,4.57,5.333,14.855,5.333,14.855v16.568l-2.857.217-4.57.352-6.858-28.189s-4-20.569-2.095-24.188,3.62-26.283,3.62-26.283l1.583-1.636,3.75-3.885H1044.5a7.3,7.3,0,0,1,2.114,2.36c1.824,3.016,3.46,9.29-1.539,20.873-7.809,18.093-10.1,20.95-10.1,20.95A4.386,4.386,0,0,0,1034.364,640.4Z" transform="translate(-109.968 1243.036)"/><path class="o" d="M1043.688,779.926l-8.248,1.033.333-2.413s7.427-1.906,7.427-.965A14.781,14.781,0,0,0,1043.688,779.926Z" transform="translate(-115.798 1148.923)"/><path class="n" d="M1022.211,613.106s.483,14.995.55,24.415v5.309a11.746,11.746,0,0,1-.154,2.09c-.569,1.713.57,5.521.57,5.521a54.975,54.975,0,0,1,3.427,23.619v8.378l-9.141,1.144s1.525-1.144-2.669-12.191a48.144,48.144,0,0,1-2.939-16.708,17.882,17.882,0,0,0-1.337-6.612,8.163,8.163,0,0,1-.483-2.2,43.715,43.715,0,0,0-2.095-8.571s-4.57-13.513-5.714-23.426a54.536,54.536,0,0,1,.265-14.169,35.344,35.344,0,0,1,.685-3.542s18.619-11.718,25.651-3.62a9.168,9.168,0,0,1,1.588,2.669,17.607,17.607,0,0,1,.9,2.968C1033.5,608.917,1022.211,613.106,1022.211,613.106Z" transform="translate(-98.438 1246.001)"/><circle class="j" cx="9.715" cy="9.715" r="9.715" transform="translate(913.494 1756.258)"/><path class="j" d="M1031.118,451.5s4,11.235,0,17.142,12.76,4,12.76,4l6.477-7.809s-7.62,0-8-13.335S1031.118,451.5,1031.118,451.5Z" transform="translate(-113.243 1320.567)"/><path class="o" d="M1036.188,597.1a25.005,25.005,0,0,1-4.242,1.062c-2.37.367-5.169.381-6.8-1.062-.965-.854-3.378-.965-6.23-.685a106.8,106.8,0,0,0-15.791,3.277,35.381,35.381,0,0,1,.685-3.542s18.619-11.718,25.651-3.62h4.063a7.3,7.3,0,0,1,2.114,2.36C1035.986,596.407,1036.188,597.1,1036.188,597.1Z" transform="translate(-99.076 1246.006)"/><path class="o" d="M1044.251,789.107l-1.332,3.62-8.759-2.476.483-3.591c1.506,3.33,4.073,3.784,4.073,3.784a31.073,31.073,0,0,1,5.241-2.3C1044.135,788.725,1044.251,789.107,1044.251,789.107Z" transform="translate(-115.136 1144.09)"/><path class="m" d="M1031.751,786.9s-1.332,0-6.1,2.476c0,0-3.238-.569-4.57-5.145,0,0-4,6.858-6.665,7.239s-7.809.762-4.382,5.333,23.619,2.476,23.619,2.476S1034.227,788.231,1031.751,786.9Z" transform="translate(-102.066 1145.348)"/><path class="k" d="M1007.655,465.164s-9.334-1.525-11.809-3.427c0,0-1.906,3.62-5.333,1.713s-11.428-1.713-11.428-1.713a17.272,17.272,0,0,1-8-11.809s-1.332-4.952-.965-6.274c0,0-4.952-5.145-7.427,1.713.965,4.763,1.713,4.382,1.525,8.2l3.045,8.378s.188,2.857,5.714,6.665a122.186,122.186,0,0,1,11.809,9.715s-3.335,1.81-2.095,10.1c1.515,10.135-.763,24.57-.763,24.57v9.334s19.049-5.521,22.282-2.669,11.047,0,11.047,0a106.418,106.418,0,0,1-2.288-11.047,48.419,48.419,0,0,1,.188-15.444s4.952-13.141,7.239-18.474-1.713-12.548-5.714-15.236-5.487-1.067-5.487-1.067S1016.226,463.451,1007.655,465.164Z" transform="translate(-78.158 1322.517)"/><path class="d" d="M1005.15,545.3s1.52-.367,9.136-1.511,20.95,1.525,20.95,1.525" transform="translate(-100.126 1269.899)"/><path class="o" d="M1018.381,421.6c4.344.092,7.558,5.449,5.632,9.314-.844,1.7-2.481,3.195-2.312,5.082a18.358,18.358,0,0,0,.734,2.476c.912,3.861-3.706,7.476-2.65,11.288a8.153,8.153,0,0,0,1.651,2.765l8.021,10.106a7.589,7.589,0,0,1,1.2,1.853,7.815,7.815,0,0,1,.348,2.968c-.039,4.826.275,10,3.122,13.918a12.789,12.789,0,0,0,15.583,3.769c-1.245-1.887-2.543-4.1-1.931-6.274.71-2.466,3.518-3.605,5.14-5.593,1.959-2.413,2.008-5.84,1.448-8.885s-1.684-6.023-1.708-9.121c-.039-5.034,2.539-10.883-.854-14.6a16.249,16.249,0,0,1-2.389-2.471,5.612,5.612,0,0,1-.6-2.789c-.053-5.869,3.06-11.838,1.192-17.4a5.912,5.912,0,0,0-2.138-3.1c-2.645-1.781-6.313-.053-9.372-.965-1.448-.42-2.64-1.395-4.054-1.872-3.813-1.289-7.34,1.3-9.976,3.779a30.415,30.415,0,0,1-3.479,2.625C1021.176,418.376,1016.692,421.571,1018.381,421.6Z" transform="translate(-106.774 1338.075)"/><path class="p" d="M1019.381,421.6c4.344.092,7.558,5.449,5.632,9.314-.845,1.7-2.481,3.195-2.312,5.082a18.376,18.376,0,0,0,.734,2.476c.912,3.861-3.706,7.476-2.649,11.288a8.149,8.149,0,0,0,1.651,2.765l8.021,10.106a7.593,7.593,0,0,1,1.2,1.853,7.812,7.812,0,0,1,.347,2.968c-.039,4.826.275,10,3.122,13.918a12.789,12.789,0,0,0,15.583,3.769c-1.245-1.887-2.543-4.1-1.93-6.274.709-2.466,3.518-3.605,5.14-5.593,1.959-2.413,2.008-5.84,1.448-8.885s-1.684-6.023-1.708-9.121c-.039-5.034,2.539-10.883-.854-14.6a16.256,16.256,0,0,1-2.389-2.471,5.614,5.614,0,0,1-.6-2.789c-.053-5.869,3.06-11.838,1.192-17.4a5.913,5.913,0,0,0-2.138-3.1c-2.645-1.781-6.312-.053-9.372-.965-1.448-.42-2.64-1.395-4.054-1.872-3.813-1.289-7.34,1.3-9.976,3.779a30.4,30.4,0,0,1-3.479,2.625C1022.176,418.376,1017.692,421.571,1019.381,421.6Z" transform="translate(-107.292 1338.075)"/><g transform="translate(-578 -443)"><ellipse class="q" cx="32.276" cy="5.415" rx="32.276" ry="5.415" transform="translate(1169.367 2376.529)"/><path class="o" d="M588.932,472.414c-.3-.619-2.712-8.588-2.712-8.588l-4.642-11.783s-2.816-15.507-7.019-11.638,2.26,13.153,2.26,13.153,2.653,6.78,2.518,8.136,1.478,6.328,1.478,6.328l-.524,2.856c-.682-.045-1.125-.045-1.125-.045s-.416.6-.814.637a.375.375,0,0,1-.2-.027,11.062,11.062,0,0,0-2.712-.163,6.075,6.075,0,0,1-2.029-.651c-.262-.524-1.745-.836-3.06-1.012-1-2.486-2.4-4.9-2.6-7.5a3.24,3.24,0,0,1,.4-2.043,2.552,2.552,0,0,1,.3-.371c.366-.371.814-.7,1.22-1.04.2-.172.389-.348.565-.529,3.449-3.345,2.9-8.524-.226-12.108-3.616-4.145-19.923-13.062-24.859-5.424a8.626,8.626,0,0,0-.9,3.485,14.527,14.527,0,0,1-3.9,7.684c-1.636,1.74-3.783,3.345-4.723,5.315l-.032-.072a5.266,5.266,0,0,0-.488,1.356c-.475,2.4,1.144,4.71,1.993,7.046a12.661,12.661,0,0,1,.624,2.45l.054-.515a15.922,15.922,0,0,1,.212,3.616c-5.921,1.211-5.925,11.417-5.925,11.417a35.439,35.439,0,0,0-.606,5.519c.122,1.451.122,4.624.122,5.4s-.732,5.519-.814,6.088c-.1.628-1.216,3.638,1.469,4.316.185.05.384.09.588.127.113,2.436.325,7.548.14,8.678,0,0,.976,6.861,1.785,8.588a20.357,20.357,0,0,0,1.808,2.915,3.164,3.164,0,0,1-.411,1.18c-.411.6-.2,1.094.493,1.306q-.032.312-.081.705c-.294,2.649-.737,7.905,0,10.572a26.866,26.866,0,0,1,1.094,4.868,3.616,3.616,0,0,0,.425,1.7c.452.61,1.22,6.269,1.22,7.182s2.07,9.13,1.46,11.078a11.937,11.937,0,0,0-.122,4.687,40.355,40.355,0,0,1-.791,5.844c-.425,1.035-.61,17.713.059,22.034s1.1,7.914,1.1,7.914-.452,3.955-.063,4.52,1.035,3.837.547,4.018-.728,1.523-.728,1.523a13.365,13.365,0,0,0,.832,1.134,4.61,4.61,0,0,1-.551-.235c.194.276.484.655.836,1.071l-.33,4.375a.732.732,0,0,0,.542.768,6.075,6.075,0,0,0,6.047-1.713c3.042-3.1,4.068-2.676,4.628-4.565.054-.2.108-.4.149-.588a1.975,1.975,0,0,0-2.8-2.215,14.355,14.355,0,0,0,.2-3.7,55.484,55.484,0,0,1-.244-6.391l-.425-22.147a30.206,30.206,0,0,1,1.7-6.084c.913-1.7.791-7.684.791-7.684l1.035-19.6,1.031-9.492s.972-3.286,2.188.366c0,0-.669,7.363-.362,9.13a81.473,81.473,0,0,1,.425,12.235c-.3,1.889-1.645,12.235-.791,14.852s1.763,5.781,1.582,6.816-.791,23.5-.791,23.5,1.641,4.321.425,5.722-.059,7-.059,7,.145.1.4.253l-.036.452-.38,5.035a.737.737,0,0,0,.542.768,6.083,6.083,0,0,0,6.047-1.713c3.042-3.105,4.068-2.68,4.628-4.565.054-.2.108-.4.154-.592a1.98,1.98,0,0,0-3.191-1.966.423.423,0,0,1-.068.059c-.077.068-.158.127-.24.185l-.117.077a16.9,16.9,0,0,0,.538-4.886c-.3-1.645.3-6.635.3-6.635s1.767-5.966,1.808-8.339.488-18.983.488-18.983-.059-7.729.185-9.614,2.188-18.2,4.136-23.051c1.5-3.733,2.165-13.247,1.767-18.079-.023-.244-.045-.452-.068-.687a7.237,7.237,0,0,0,2.635-4.737s-2.192-4.221-4.3-6.007a8.209,8.209,0,0,1-2.518-6.169,3.2,3.2,0,0,0-.728-2.188s-.976-3.164-1.627-3.489a.453.453,0,0,1-.14-.108c-.452-.479-.1-1.84-.1-1.84v-.041a11.224,11.224,0,0,0,.393-2.884,20.8,20.8,0,0,1,.081-3.245,26.165,26.165,0,0,0,1.3-8.276,2.846,2.846,0,0,1,3.164-3.331l10.527-.108h1.2a8.829,8.829,0,0,0,1.356-1.451,2.9,2.9,0,0,0,2.328-.57C589.511,476.943,589.235,473.042,588.932,472.414Zm-48.954,31.638.077-1.853.411.353a2.966,2.966,0,0,1,0,1.482,1.582,1.582,0,0,1-.9,1.031,1.011,1.011,0,0,0-.149.09l-.1-1.058c.429-.027.669-.05.669-.05Z" transform="translate(648.114 1764.631)"/><path class="r" d="M631.5,476.838s5.993,3.855,8.262,1.808,1.989-6,1.681-6.621-2.748-8.646-2.748-8.646L633.98,451.5s-2.866-15.634-7.141-11.751,2.305,13.256,2.305,13.256,2.712,6.838,2.558,8.208,1.5,6.386,1.5,6.386Z" transform="translate(596.083 1763.8)"/><path class="s" d="M600.155,827.778c-.045.194-.095.393-.158.6-.556,1.9-1.609,1.473-4.7,4.6a6.205,6.205,0,0,1-6.147,1.727.741.741,0,0,1-.551-.773l.389-5.076.185-2.445s4.922,1.383,7.431-.366c.081-.059.163-.118.24-.185l.072-.059a2.011,2.011,0,0,1,3.241,1.98Z" transform="translate(616.25 1552.146)"/><path class="t" d="M565.989,823.534c-.041.194-.095.393-.154.6-.556,1.9-1.609,1.473-4.7,4.6a6.224,6.224,0,0,1-6.147,1.731.737.737,0,0,1-.551-.777l.384-5.076.19-2.445s4.922,1.383,7.426-.366c.086-.059.163-.118.244-.185l.072-.059a2.007,2.007,0,0,1,3.236,1.98Z" transform="translate(634.971 1554.474)"/><g class="u" transform="translate(1188.879 2378.667)"><path class="v" d="M560.253,828.054l.2,2.635c-2.829,2.8-6.192-1.356-7.186-2.739C555.86,829.279,560.253,828.054,560.253,828.054Z" transform="translate(-553.27 -827.95)"/></g><g class="u" transform="translate(1205.236 2378.188)"><path class="w" d="M596.7,828.544l.375-.244c-2.585,3.9-6.418,2.1-7.611,1.4l.185-2.445s4.922,1.383,7.431-.366C596.877,827.844,596.7,828.544,596.7,828.544Z" transform="translate(-589.46 -826.89)"/></g><path class="x" d="M578.669,641.792c-1.98,4.908-3.959,21.356-4.208,23.259s-.185,9.695-.185,9.695l-.515,19.146c-.059,2.4-1.853,8.407-1.853,8.407s-.619,5.035-.312,6.689-.8,6.016-.8,6.016l.375-.244c-3.1,4.66-7.982,1.162-7.982,1.162s-1.175-5.645.059-7.055-.429-5.767-.429-5.767.615-22.644.8-23.688-.705-4.235-1.609-6.875.493-13.071.8-14.974a79.309,79.309,0,0,0-.452-12.335c-.325-1.781.371-9.207.371-9.207-1.238-3.679-2.228-.366-2.228-.366l-.99,9.636L558.5,665.074s.127,6.011-.8,7.729a30.04,30.04,0,0,0-1.731,6.138l.452,22.337a54.649,54.649,0,0,0,.249,6.445c.312,1.781-.682,6.382-.682,6.382-3.462,8.1-9.04-.673-9.04-.673s.244-1.356.741-1.537-.185-3.5-.556-4.068.059-4.52.059-4.52-.429-3.616-1.112-7.982-.493-21.171-.063-22.215a40.578,40.578,0,0,0,.8-5.876,11.993,11.993,0,0,1,.127-4.728c.619-1.966-1.487-10.246-1.487-11.168s-.8-6.626-1.238-7.232a3.615,3.615,0,0,1-.452-1.717,27.142,27.142,0,0,0-1.116-4.908c-.768-2.712-.316-7.991,0-10.658.109-.99.2-1.618.2-1.618s35.512-5.708,36.936-4.416a5.547,5.547,0,0,1,.682,2.829C580.866,628.436,580.184,638.032,578.669,641.792Z" transform="translate(641.663 1664.351)"/><g class="u" transform="translate(1206.904 2333.637)"><path class="y" d="M593.15,728.419a33.108,33.108,0,0,0,5.528.041C600.138,728.171,593.15,728.419,593.15,728.419Z" transform="translate(-593.15 -728.32)"/></g><g class="u" transform="translate(1207.193 2336.027)"><path class="z" d="M593.79,733.609s5.424.94,5.695.452S593.79,733.609,593.79,733.609Z" transform="translate(-593.79 -733.609)"/></g><g class="u" transform="translate(1190.655 2335.047)"><path class="aa" d="M557.2,731.44a15.012,15.012,0,0,1,4.33.818C563.058,732.954,557.2,731.44,557.2,731.44Z" transform="translate(-557.2 -731.44)"/></g><path class="ab" d="M534.66,579.086s.452,8.551.208,10.061c0,0,.99,6.915,1.808,8.674a24.92,24.92,0,0,0,2.6,3.968l2.432-16.976L541.141,579Z" transform="translate(645.808 1687.147)"/><ellipse class="ac" cx="9.528" cy="9.451" rx="9.528" ry="9.451" transform="translate(1196.513 2208.38)"/><path class="ad" d="M572.737,481.492s-2.969,5.767-5.939,8.47,17.817,5.767,18.31,5.767-3.711-12.271-2.97-13.745S572.737,481.492,572.737,481.492Z" transform="translate(628.354 1740.76)"/><g class="u" transform="translate(1184.31 2284.913)"><path class="ae" d="M580.977,623.529a6.173,6.173,0,0,1-1.528.85c-3.792,1.474-7.919,3.521-10.725,2.712s-8.741,0-8.741,0-11.964-.985-14.355-.411a4.637,4.637,0,0,1-2.468.063c.109-.99.2-1.618.2-1.618s35.512-5.708,36.936-4.416C580.629,621,580.85,622.042,580.977,623.529Z" transform="translate(-543.16 -620.518)"/></g><path class="af" d="M578.09,550.256a6.9,6.9,0,0,1-4.127,5.564c-3.8,1.5-7.919,3.521-10.725,2.712s-8.741,0-8.741,0-11.964-.985-14.355-.411-3.616-.163-2.888-1.229.664-4.578.664-6.052-.827-7.449-.086-8.511,1.4-5.153,2.888-5.808a1.6,1.6,0,0,0,.927-1.039,2.924,2.924,0,0,0,0-1.5s-.249-.2-.6-.511c-.872-.773-2.355-2.21-1.88-2.68.66-.655,0-4.913,0-4.913s-1.568-3.272-.99-4.5-5.031-7.684-5.031-7.684,0-11.128,6.78-11.62c0,0,4.782.167,5.36-1.962s4.371-3.358,4.371-3.358l8.66,1.885s7.684,1.636,9.076.655,2.477,1.306,2.477,1.306,4.782.249,5.279,1.229-1.568,10.554-1.568,10.554a2.884,2.884,0,0,0-3.218,3.358,26.2,26.2,0,0,1-1.32,8.344,19.435,19.435,0,0,0-.081,3.272,10.474,10.474,0,0,1-.4,2.906v.041s-.344,1.356.1,1.858a.673.673,0,0,0,.145.109c.66.325,1.65,3.516,1.65,3.516a3.222,3.222,0,0,1,.746,2.21,8.253,8.253,0,0,0,2.554,6.219C575.9,546.026,578.09,550.256,578.09,550.256Z" transform="translate(646.635 1732.217)"/><path class="ag" d="M539.268,551.086v.348l-.154,3.828s-5.071.407-7.837-.289-1.6-3.72-1.487-4.353h0c.081-.574.823-5.36.823-6.138s0-3.968-.122-5.424a35.7,35.7,0,0,1,.619-5.564l.533-.655,5.817,2.21Z" transform="translate(648.662 1712.444)"/><g class="u" transform="translate(1178.105 2263.074)"><path class="ah" d="M539.248,573.013l-.154,3.828s-5.071.407-7.837-.289-1.6-3.72-1.487-4.353Z" transform="translate(-529.432 -572.2)"/></g><g class="u" transform="translate(1187.708 2262.469)"><path class="ai" d="M551.277,576.08a2.924,2.924,0,0,0,0-1.5s-.249-.2-.6-.511c4.371-.6,21.668-2.96,27.5-3.214v.041s-.344,1.356.1,1.858Z" transform="translate(-550.68 -570.86)"/></g><g class="u" transform="translate(1212.888 2270.667)"><path class="aj" d="M609.319,589s1.071,6.016-2.929,8.136A18.278,18.278,0,0,0,609.319,589Z" transform="translate(-606.39 -589)"/></g><g class="u" transform="translate(1189.625 2278.106)"><path class="ak" d="M554.92,606.308s9.65-1.636,11.548-.371S554.92,606.308,554.92,606.308Z" transform="translate(-554.92 -605.458)"/></g><g class="u" transform="translate(1211.688 2241.687)"><path class="al" d="M604.519,524.88s-1.483,6.052-.371,7.444S604.519,524.88,604.519,524.88Z" transform="translate(-603.735 -524.88)"/></g><g class="u" transform="translate(1184.462 2236.733)"><path class="am" d="M543.544,513.92a5.966,5.966,0,0,1,.538,4.583C543.264,520.826,543.544,513.92,543.544,513.92Z" transform="translate(-543.497 -513.92)"/></g><path class="an" d="M537.4,557.55s1.731,1.026,1.153,2.621S537.4,557.55,537.4,557.55Z" transform="translate(644.306 1698.902)"/><g class="u" transform="translate(1181.525 2251.788)"><path class="ao" d="M537,547.23s1.609.863,1.808,2.129S537,547.23,537,547.23Z" transform="translate(-537 -547.23)"/></g><g class="u" transform="translate(1205.381 2299.363)"><path class="ap" d="M589.78,653.846s10.106,1.026,12.127-1.356C601.907,652.5,592.79,654.3,589.78,653.846Z" transform="translate(-589.78 -652.49)"/></g><g class="u" transform="translate(1187.935 2300.15)"><path class="aq" d="M551.18,654.23s10.847,2.536,12.99.529C564.17,654.759,554.85,655.455,551.18,654.23Z" transform="translate(-551.18 -654.23)"/></g><g class="u" transform="translate(1206.163 2304.037)"><path class="ar" d="M591.51,662.83s4.52,0,6.639.122S591.51,662.83,591.51,662.83Z" transform="translate(-591.51 -662.83)"/></g><g class="u" transform="translate(1188.676 2305.958)"><path class="as" d="M552.82,667.08s2.228,2.495,4.741,2.048S552.82,667.08,552.82,667.08Z" transform="translate(-552.82 -667.08)"/></g><path class="at" d="M550.184,437.334a8.329,8.329,0,0,0-.9,3.512,14.608,14.608,0,0,1-3.959,7.77c-1.98,2.088-4.7,3.977-5.207,6.527-.484,2.423,1.162,4.75,2.025,7.105,2.26,6.215-.9,12.728-1.831,19.141-.253,1.772.054,4.036,2.26,4.624a13.031,13.031,0,0,1,2.088.452,2.488,2.488,0,0,1,1.238,1.948,29.681,29.681,0,0,1,.565,8.014c-.1,1.51-.208,3.241,1.225,4.276a7.286,7.286,0,0,0,2.377.94c2.26.606,5.184,1.089,6.707-.325.642-.592.9-1.433,1.677-1.9,1.193-.7,2.888-.226,4.393-.154a7.978,7.978,0,0,0,7.146-3.806,10.123,10.123,0,0,0,.66-6.992c-.452-2.341-1.229-4.655-1.288-7.024a4.069,4.069,0,0,1,.533-2.382c.9-1.41,3.06-2.052,4.52-3.164,2.739-2.079,2.712-5.487,1.736-8.339s-2.784-5.577-3.006-8.524a3.236,3.236,0,0,1,.407-2.061,8.037,8.037,0,0,1,1.663-1.546c4-3.349,3.53-8.854.221-12.619C571.762,438.614,555.179,429.619,550.184,437.334Z" transform="translate(642.867 1766.44)"/><g class="u" transform="translate(1182.771 2213.425)"><path class="au" d="M542.5,488.548a15.4,15.4,0,0,0-.628-7.376c-.452-1.189-1.071-2.373-1.528-3.562a5.058,5.058,0,0,0-.5,1.356c-.488,2.418,1.162,4.746,2.025,7.105A12.845,12.845,0,0,1,542.5,488.548Z" transform="translate(-539.754 -470.713)"/><path class="av" d="M546.454,546.565a29.52,29.52,0,0,0-.569-8.013,2.5,2.5,0,0,0-1.234-1.948,12.258,12.258,0,0,0-2.093-.452,2.852,2.852,0,0,1-1.926-1.582c-.122.624-.235,1.247-.325,1.867-.258,1.772.05,4.036,2.26,4.624a13.194,13.194,0,0,1,2.093.452,2.5,2.5,0,0,1,1.234,1.948,29.447,29.447,0,0,1,.533,3.7C546.418,546.968,546.454,546.764,546.454,546.565Z" transform="translate(-540.015 -501.928)"/><path class="aw" d="M577.418,556.808a7.973,7.973,0,0,1-7.141,3.806c-1.505-.072-3.2-.547-4.393.154-.8.452-1.04,1.311-1.677,1.9-1.523,1.415-4.447.931-6.707.325a7.234,7.234,0,0,1-2.377-.94,2.92,2.92,0,0,1-1.171-1.889c0,.841,0,1.686-.054,2.527-.1,1.505-.208,3.236,1.225,4.271a7.232,7.232,0,0,0,2.377.94c2.26.61,5.184,1.089,6.707-.325.637-.592.9-1.428,1.677-1.9,1.193-.705,2.888-.231,4.393-.154a7.964,7.964,0,0,0,7.141-3.81,9.881,9.881,0,0,0,.714-6.716,7.313,7.313,0,0,1-.714,1.808Z" transform="translate(-547.476 -513.124)"/><path class="ax" d="M615.043,465.988a8.062,8.062,0,0,0-1.668,1.546,3.241,3.241,0,0,0-.4,2.061,10.655,10.655,0,0,0,.565,2.626,11.3,11.3,0,0,1,1.505-1.324,7.9,7.9,0,0,0,2.486-8.547A7.851,7.851,0,0,1,615.043,465.988Z" transform="translate(-579.863 -462.35)"/><path class="ay" d="M609.675,512.446c-1.464,1.107-3.616,1.749-4.52,3.164a4.037,4.037,0,0,0-.533,2.382,16.4,16.4,0,0,0,.353,2.847,3.228,3.228,0,0,1,.181-.321c.9-1.406,3.055-2.052,4.52-3.164,2.5-1.9,2.712-4.9,1.971-7.584a5.726,5.726,0,0,1-1.971,2.676Z" transform="translate(-575.295 -488.337)"/></g><path class="az" d="M636.835,512.4a14.466,14.466,0,0,1-3.878,5.93h-1.216l-10.7.109-1.238-3.354,1.736-7.232,1.067.068a6.193,6.193,0,0,0,2.061.655,11.424,11.424,0,0,1,2.762.163.357.357,0,0,0,.2.027c.4-.041.832-.642.832-.642S638.525,508.139,636.835,512.4Z" transform="translate(599.149 1726.14)"/><g class="u" transform="translate(1226.782 2234.225)"><path class="ba" d="M646.332,512.682a14.467,14.467,0,0,1-3.878,5.93h-1.216a56.093,56.093,0,0,1,2.495-5.943c.524-.8-3.982-2.64-6.6-3.657.4-.041.832-.642.832-.642S648.023,508.424,646.332,512.682Z" transform="translate(-637.13 -508.37)"/></g><path class="bb" d="M630.92,479.834s5.876,3.824,8.136,1.781,1.957-5.948,1.654-6.567S638,466.46,638,466.46l-4.642-11.783s-2.816-15.507-7.019-11.638,2.26,13.153,2.26,13.153,2.653,6.78,2.518,8.136,1.478,6.328,1.478,6.328Z" transform="translate(596.345 1761.997)"/><path class="f" d="M600.079,827.926c-.045.19-.1.389-.154.592-.551,1.885-1.586,1.46-4.628,4.565a6.084,6.084,0,0,1-6.047,1.713.737.737,0,0,1-.542-.768l.38-5.035.185-2.423s4.845,1.356,7.308-.366c.081-.059.163-.117.24-.185a.42.42,0,0,0,.068-.059,1.98,1.98,0,0,1,3.191,1.966Z" transform="translate(616.19 1552.057)"/><path class="f" d="M566.434,823.725c-.041.19-.095.384-.149.588-.551,1.889-1.586,1.46-4.628,4.565a6.075,6.075,0,0,1-6.047,1.713.732.732,0,0,1-.542-.768l.38-5.035.185-2.423s4.845,1.356,7.308-.366a2.793,2.793,0,0,0,.24-.181l.068-.063a1.98,1.98,0,0,1,3.186,1.971Z" transform="translate(634.626 1554.359)"/><path class="o" d="M560.82,828.215l.2,2.617c-2.78,2.775-6.093-1.356-7.069-2.712C556.508,829.422,560.82,828.215,560.82,828.215Z" transform="translate(635.236 1550.624)"/><path class="o" d="M596.673,828.691l.366-.24c-2.54,3.86-6.328,2.079-7.489,1.388l.185-2.423s4.845,1.356,7.308-.366C596.849,827.995,596.673,828.691,596.673,828.691Z" transform="translate(615.727 1551.211)"/><path class="bc" d="M578.963,643.393c-1.948,4.868-3.9,21.18-4.136,23.051s-.185,9.614-.185,9.614l-.488,18.983c-.059,2.373-1.808,8.339-1.808,8.339s-.606,4.972-.3,6.635-.791,5.966-.791,5.966l.366-.244c-3.042,4.624-7.851,1.157-7.851,1.157s-1.157-5.6.059-7-.425-5.722-.425-5.722.61-22.459.791-23.5-.732-4.2-1.582-6.816.488-12.967.791-14.852a82.068,82.068,0,0,0-.425-12.235c-.3-1.763.362-9.13.362-9.13-1.216-3.652-2.187-.366-2.187-.366l-.976,9.555-1.053,19.62s.122,5.962-.791,7.684a30.353,30.353,0,0,0-1.7,6.066l.425,22.147a55.489,55.489,0,0,0,.244,6.391c.3,1.763-.669,6.328-.669,6.328-3.408,8.032-8.886-.669-8.886-.669s.244-1.356.728-1.523-.181-3.471-.547-4.018.063-4.52.063-4.52-.452-3.593-1.1-7.914-.484-21-.059-22.034a40.354,40.354,0,0,0,.791-5.844,11.937,11.937,0,0,1,.122-4.687c.61-1.948-1.46-10.165-1.46-11.078s-.791-6.572-1.22-7.182a3.618,3.618,0,0,1-.425-1.7,26.861,26.861,0,0,0-1.094-4.868c-.755-2.667-.312-7.923,0-10.572.108-.981.2-1.6.2-1.6s34.938-5.659,36.339-4.38a5.6,5.6,0,0,1,.669,2.807C581.128,630.123,580.459,639.637,578.963,643.393Z" transform="translate(641.166 1663.433)"/><path class="o" d="M593.19,729.382a32.419,32.419,0,0,0,5.424.041C600.019,729.138,593.19,729.382,593.19,729.382Z" transform="translate(613.732 1604.788)"/><path class="o" d="M593.82,734.53s5.315.936,5.6.452S593.82,734.53,593.82,734.53Z" transform="translate(613.387 1601.914)"/><path class="o" d="M557.82,732.38a14.725,14.725,0,0,1,4.258.809C563.578,733.876,557.82,732.38,557.82,732.38Z" transform="translate(633.116 1603.092)"/><path class="bb" d="M535.64,581.271s.452,8.479.2,9.98c0,0,.976,6.861,1.785,8.588a24.882,24.882,0,0,0,2.558,3.937l2.4-16.823-.565-5.763Z" transform="translate(645.271 1685.947)"/><circle class="bb" cx="9.374" cy="9.374" r="9.374" transform="translate(1196.698 2209.84)"/><path class="bb" d="M573.1,484.472s-2.92,5.718-5.844,8.4,17.532,5.722,18.02,5.722-3.652-12.176-2.924-13.636S573.1,484.472,573.1,484.472Z" transform="translate(628.103 1739.126)"/><path class="o" d="M581.207,625.352a6.13,6.13,0,0,1-1.5.845c-3.733,1.46-7.792,3.489-10.554,2.676s-8.588,0-8.588,0-11.752-.972-14.12-.407a4.551,4.551,0,0,1-2.445.05c.109-.981.2-1.6.2-1.6s34.938-5.659,36.339-4.38A5.545,5.545,0,0,1,581.207,625.352Z" transform="translate(640.689 1663.395)"/><path class="f" d="M578.365,552.646a6.8,6.8,0,0,1-4.068,5.519c-3.742,1.451-7.792,3.489-10.554,2.68s-8.588,0-8.588,0-11.751-.976-14.12-.407-3.571-.163-2.843-1.22.651-4.52.651-6-.814-7.385-.081-8.443,1.356-5.112,2.843-5.763a1.581,1.581,0,0,0,.9-1.031,2.964,2.964,0,0,0,0-1.482s-.244-.2-.588-.506c-.859-.768-2.314-2.192-1.844-2.658.646-.651,0-4.872,0-4.872s-1.546-3.245-.976-4.461-4.972-7.629-4.972-7.629,0-11.037,6.658-11.525c0,0,4.705.163,5.275-1.948s4.3-3.327,4.3-3.327l8.52,1.867s7.548,1.623,8.927.651,2.418,1.293,2.418,1.293,4.705.244,5.193,1.216-1.541,10.468-1.541,10.468a2.846,2.846,0,0,0-3.164,3.331,26.164,26.164,0,0,1-1.3,8.276,19.565,19.565,0,0,0-.081,3.245,10.615,10.615,0,0,1-.393,2.884v.041s-.334,1.356.1,1.839a.451.451,0,0,0,.14.109c.651.321,1.627,3.489,1.627,3.489a3.205,3.205,0,0,1,.728,2.188,8.208,8.208,0,0,0,2.518,6.169C576.168,548.42,578.365,552.646,578.365,552.646Z" transform="translate(646.098 1730.677)"/><path class="f" d="M540.217,553.475v.344l-.149,3.8s-4.972.407-7.684-.285-1.573-3.688-1.469-4.316c.081-.569.814-5.32.814-6.088s0-3.937-.122-5.4a35.29,35.29,0,0,1,.606-5.519l.529-.651,5.722,2.192Z" transform="translate(648.038 1711.063)"/><path class="o" d="M540.187,575.225l-.149,3.8s-4.972.407-7.684-.285-1.573-3.688-1.469-4.316Z" transform="translate(648.055 1689.657)"/><path class="o" d="M551.948,578.313a2.963,2.963,0,0,0,0-1.482s-.244-.2-.588-.506c4.3-.6,21.32-2.933,27.055-3.164v.041s-.334,1.356.1,1.84Z" transform="translate(636.656 1690.348)"/><path class="o" d="M609.089,591.06s1.058,5.966-2.879,8.077A18.116,18.116,0,0,0,609.089,591.06Z" transform="translate(606.597 1680.539)"/><path class="o" d="M555.57,608.268s9.492-1.623,11.363-.366S555.57,608.268,555.57,608.268Z" transform="translate(634.349 1671.57)"/><path class="o" d="M604.373,527.5s-1.46,6.007-.366,7.385S604.373,527.5,604.373,527.5Z" transform="translate(608.027 1715.371)"/><path class="o" d="M544.376,516.64a5.828,5.828,0,0,1,.529,4.542C544.078,523.5,544.376,516.64,544.376,516.64Z" transform="translate(640.512 1721.322)"/><path class="f" d="M538.34,559.91s1.7,1.017,1.135,2.6S538.34,559.91,538.34,559.91Z" transform="translate(643.791 1697.609)"/><path class="o" d="M538,549.68s1.582.85,1.785,2.106S538,549.68,538,549.68Z" transform="translate(643.978 1703.216)"/><path class="o" d="M589.87,655.406s9.944,1.017,11.928-1.356C601.8,654.068,592.83,655.835,589.87,655.406Z" transform="translate(615.552 1646.019)"/><path class="o" d="M551.89,655.79s10.671,2.517,12.782.529C564.672,656.337,555.5,657.01,551.89,655.79Z" transform="translate(636.365 1645.064)"/><path class="o" d="M591.57,664.32s4.466,0,6.536.122S591.57,664.32,591.57,664.32Z" transform="translate(614.62 1640.391)"/><path class="o" d="M553.51,668.54s2.192,2.477,4.664,2.029S553.51,668.54,553.51,668.54Z" transform="translate(635.478 1638.078)"/><path class="bd" d="M550.867,440.641a8.625,8.625,0,0,0-.9,3.485,14.526,14.526,0,0,1-3.9,7.684c-1.943,2.07-4.615,3.946-5.121,6.472-.475,2.4,1.143,4.71,1.993,7.046,2.26,6.16-.9,12.624-1.808,18.983-.253,1.758.05,4,2.215,4.588a11.9,11.9,0,0,1,2.061.452,2.468,2.468,0,0,1,1.211,1.93,29.591,29.591,0,0,1,.56,7.95c-.1,1.5-.208,3.214,1.2,4.244a7.276,7.276,0,0,0,2.341.931c2.224.6,5.1,1.076,6.6-.325.628-.588.863-1.419,1.65-1.885,1.175-.7,2.843-.226,4.321-.154a7.833,7.833,0,0,0,7.028-3.774,10.114,10.114,0,0,0,.651-6.933c-.443-2.323-1.211-4.619-1.266-6.969a4.027,4.027,0,0,1,.524-2.359c.9-1.4,3.006-2.038,4.447-3.137,2.712-2.061,2.685-5.424,1.708-8.271s-2.743-5.532-2.96-8.457a3.241,3.241,0,0,1,.4-2.043,8.217,8.217,0,0,1,1.677-1.5c3.937-3.322,3.471-8.782.217-12.515C572.11,441.929,555.794,433.012,550.867,440.641Z" transform="translate(642.41 1764.607)"/><g class="u" transform="translate(1183.176 2214.844)"><path d="M543.353,491.467a15.444,15.444,0,0,0-.624-7.318c-.425-1.18-1.049-2.35-1.505-3.53a5.259,5.259,0,0,0-.488,1.356c-.475,2.4,1.143,4.71,1.993,7.046A12.662,12.662,0,0,1,543.353,491.467Z" transform="translate(-540.651 -473.782)"/><path d="M547.226,549.011a29.591,29.591,0,0,0-.56-7.95,2.468,2.468,0,0,0-1.211-1.93,11.9,11.9,0,0,0-2.061-.452,2.829,2.829,0,0,1-1.894-1.568c-.122.615-.231,1.234-.321,1.849-.253,1.758.05,4,2.215,4.588a11.9,11.9,0,0,1,2.061.452,2.475,2.475,0,0,1,1.211,1.934,29.778,29.778,0,0,1,.524,3.67C547.2,549.4,547.213,549.2,547.226,549.011Z" transform="translate(-540.899 -504.739)"/><path d="M577.728,559.134a7.828,7.828,0,0,1-7.028,3.774c-1.478-.072-3.164-.542-4.321.154-.782.452-1.021,1.3-1.65,1.885-1.5,1.4-4.375.927-6.6.325a7.116,7.116,0,0,1-2.337-.936,2.947,2.947,0,0,1-1.157-1.871c0,.832,0,1.668-.05,2.5-.1,1.5-.208,3.214,1.207,4.244a7.23,7.23,0,0,0,2.337.931c2.224.6,5.1,1.076,6.6-.321.628-.592.868-1.424,1.65-1.889,1.175-.7,2.843-.226,4.321-.154A7.828,7.828,0,0,0,577.728,564a9.859,9.859,0,0,0,.7-6.662A7.357,7.357,0,0,1,577.728,559.134Z" transform="translate(-548.259 -515.826)"/><path d="M614.723,469.1a7.962,7.962,0,0,0-1.641,1.532,3.24,3.24,0,0,0-.4,2.043,10.927,10.927,0,0,0,.561,2.608,10.676,10.676,0,0,1,1.478-1.315,7.886,7.886,0,0,0,2.445-8.475A7.766,7.766,0,0,1,614.723,469.1Z" transform="translate(-580.111 -465.49)"/><path d="M609.444,515.173c-1.442,1.1-3.544,1.736-4.447,3.132a4.068,4.068,0,0,0-.524,2.364,16.587,16.587,0,0,0,.348,2.825,2.166,2.166,0,0,1,.176-.316c.9-1.4,3.006-2.038,4.447-3.137,2.459-1.885,2.667-4.863,1.939-7.521A5.712,5.712,0,0,1,609.444,515.173Z" transform="translate(-575.619 -491.263)"/></g><path class="f" d="M636.169,515.1a14.245,14.245,0,0,1-3.819,5.876h-1.2l-10.527.108-1.216-3.327,1.7-7.182,1.053.041a6.074,6.074,0,0,0,2.029.651,11.034,11.034,0,0,1,2.712.163.375.375,0,0,0,.2.027c.4-.041.814-.637.814-.637S637.828,510.883,636.169,515.1Z" transform="translate(599.363 1724.644)"/><path class="o" d="M645.513,515.433a14.244,14.244,0,0,1-3.819,5.876h-1.2a55.139,55.139,0,0,1,2.459-5.876c.515-.773-3.919-2.617-6.495-3.616.4-.041.814-.637.814-.637S647.172,511.212,645.513,515.433Z" transform="translate(590.019 1724.314)"/></g></g></svg>