<svg xmlns="http://www.w3.org/2000/svg" width="145.031" height="30.001" viewBox="0 0 145.031 30.001"><defs><style>.a{fill:#3e89ec;}.b{fill:#333;}</style></defs><g transform="translate(-25.001 -24.999)"><path class="a" d="M4781,10310h-24v-30h6v24h24v6Zm0-12h-12v-18h6v12h12v6Zm0-15a3,3,0,1,1,3,3A3,3,0,0,1,4781,10283Z" transform="translate(-4732 -10255)"/><path class="b" d="M9.576-16.2v2.136h4.08v1.9A22.4,22.4,0,0,1,13.44-9H8.616v2.232h4.368A11.381,11.381,0,0,1,7.224.48L8.616,2.352A13.574,13.574,0,0,0,14.9-5.688,20.416,20.416,0,0,0,21.7,2.352l1.536-1.8a17.3,17.3,0,0,1-6.672-7.32h6.048V-9H20.976v-7.2H15.864v-3.432H13.656V-16.2Zm6.288,2.136h2.9V-9H15.624a29.492,29.492,0,0,0,.24-3.672ZM1.608-14.976A31.032,31.032,0,0,1,.744-8.52l1.848.528a36.86,36.86,0,0,0,.768-6.864Zm6.48-.6-1.68.552a34.342,34.342,0,0,1,1.56,5.208l1.848-.456A37.24,37.24,0,0,0,8.088-15.576Zm-3.96-4.032V2.376H6.36V-19.608Zm32.088,3.7Q35.82-4.572,28.512,0L29.76,1.992q8.28-5.508,8.712-17.9h7.536c-.048,6.84-.144,10.848-.288,12.048-.192,2.352-.912,3.552-2.136,3.552-1.32,0-2.88-.048-4.656-.12l.528,2.112c2.136.072,3.648.12,4.512.12q3.528,0,3.96-4.608.36-2.916.36-15.312h-18.7v2.208ZM56.448-10.44V2.5H58.7V-10.44ZM72.6,2.4c1.728,0,2.592-.816,2.592-2.424V-13.2H64.032v2.088h8.9V-.648c0,.7-.264,1.056-.792,1.056L69.984.336,70.536,2.4ZM61.272-9.432v9.36H70.32v-9.36Zm6.936,7.464H63.432v-1.92h4.776ZM63.432-5.712V-7.584h4.776v1.872Zm-4.08-8.472-1.68,1.032a31.552,31.552,0,0,1,2.88,3.072l1.68-1.152A22.965,22.965,0,0,0,59.352-14.184ZM58.7-16.128h1.368a21.3,21.3,0,0,1,1.584,2.784l2.016-.744a16.338,16.338,0,0,0-1.224-2.04h3.168V-18.12H59.664c.144-.36.312-.744.456-1.152l-2.208-.48A14.55,14.55,0,0,1,54.84-14.64l1.92,1.248A16.465,16.465,0,0,0,58.7-16.128Zm10.2,0h1.632a20.23,20.23,0,0,1,1.512,2.592l2.016-.744a18.768,18.768,0,0,0-1.152-1.848h3.6V-18.12h-6.72c.12-.36.24-.744.384-1.128l-2.184-.48A13.431,13.431,0,0,1,65.5-15l1.92,1.248A14.737,14.737,0,0,0,68.9-16.128Zm34.128-2.52H83.448v9C83.4-5.16,82.728-1.656,81.48.864l1.776,1.584q2.376-4.536,2.52-12.1v-6.768h17.256Zm-.816,7.128H95.064l.072-1.56v-2.376h-2.28v2.376l-.072,1.56H87.192v2.04h5.4a17.991,17.991,0,0,1-1.32,4.872,11.385,11.385,0,0,1-5.5,5.04l1.272,1.992A12.182,12.182,0,0,0,93.072-3a18.462,18.462,0,0,0,1.8-6.48h5.04a42.383,42.383,0,0,1-.528,7.992A2.008,2.008,0,0,1,97.32.12c-.768-.048-1.728-.1-2.9-.144l.6,2.136c1.1.048,2.064.1,2.832.1a3.454,3.454,0,0,0,3.36-1.944C101.832-1.032,102.168-4.968,102.216-11.52Z" transform="translate(67 49)"/></g></svg>