<svg xmlns="http://www.w3.org/2000/svg" width="25" height="20" viewBox="0 0 25 20"><defs><style>.a{fill:#fff;fill-rule:evenodd;}</style></defs><path class="a" d="M22.4,20.052A5.831,5.831,0,0,0,25,15.359c0-3.428-3.372-6.207-7.53-6.207s-7.53,2.78-7.53,6.207,3.372,6.208,7.53,6.208a8.977,8.977,0,0,0,2.458-.34l.221-.033a.8.8,0,0,1,.4.114l1.649.942.145.046a.25.25,0,0,0,.251-.248l-.041-.181-.34-1.252-.026-.159A.494.494,0,0,1,22.4,20.052ZM9.036,2.3C4.046,2.3,0,5.632,0,9.747a6.994,6.994,0,0,0,3.122,5.631.591.591,0,0,1,.253.485l-.031.19-.407,1.5-.049.217a.3.3,0,0,0,.3.3l.175-.056,1.978-1.131a.953.953,0,0,1,.479-.137l.266.039a10.792,10.792,0,0,0,2.95.409l.5-.012a5.7,5.7,0,0,1-.3-1.825c0-3.752,3.69-6.795,8.241-6.795l.491.012C17.28,5.019,13.544,2.3,9.036,2.3Zm5.923,12.069a.994.994,0,1,1,1-.994A1,1,0,0,1,14.959,14.366Zm5.021,0a.994.994,0,1,1,1-.994A1,1,0,0,1,19.98,14.366ZM6.024,8.555A1.192,1.192,0,1,1,7.229,7.363,1.2,1.2,0,0,1,6.024,8.555Zm6.024,0a1.192,1.192,0,1,1,1.205-1.191A1.2,1.2,0,0,1,12.048,8.555Z" transform="translate(0 -2.297)"/></svg>