<svg xmlns="http://www.w3.org/2000/svg" width="16" height="16" viewBox="0 0 16 16"><defs><style>.a{fill:#bfc4d3;}</style></defs><g transform="translate(-0.007 -0.008)"><path class="a" d="M180.2,1.261a4.281,4.281,0,0,0-6.053,0l-2.388,2.388a5.291,5.291,0,0,1,.572-.029,5.527,5.527,0,0,1,1.749.281l1.353-1.353a2.461,2.461,0,0,1,3.481,3.48l-2.648,2.648a2.463,2.463,0,0,1-4.005-.774,1.22,1.22,0,0,0-.8.358l-.705.706a4.282,4.282,0,0,0,6.8,1L180.2,7.314A4.281,4.281,0,0,0,180.2,1.261Z" transform="translate(-165.447)"/><path class="a" d="M9.159,162.04a5.489,5.489,0,0,1-1.768-.291l-1.363,1.363a2.461,2.461,0,0,1-3.48-3.481L5.2,156.983a2.464,2.464,0,0,1,4.005.775,1.217,1.217,0,0,0,.8-.358l.7-.705a4.283,4.283,0,0,0-6.8-1l-2.648,2.649A4.28,4.28,0,1,0,7.314,164.4L9.7,162.014c-.178.017-.358.025-.539.025Z" transform="translate(0 -149.645)"/></g></svg>