<svg xmlns="http://www.w3.org/2000/svg" xmlns:xlink="http://www.w3.org/1999/xlink" width="40" height="40" viewBox="0 0 40 40"><defs><style>.a{fill:#fff;}.b{fill:url(#a);}.c{fill:url(#b);}.d{fill:#a3cafd;}</style><linearGradient id="a" y1="1" x2="0.983" gradientUnits="objectBoundingBox"><stop offset="0" stop-color="#3e89ec"/><stop offset="1" stop-color="#0058cb"/></linearGradient><linearGradient id="b" x1="0.606" x2="0.605" y2="1.088" gradientUnits="objectBoundingBox"><stop offset="0" stop-color="#add0ff"/><stop offset="1" stop-color="#3e89ec"/></linearGradient></defs><g transform="translate(-331 -73)"><rect class="a" width="40" height="40" transform="translate(331 73)"/><path class="b" d="M37.561,6H10.111A2.057,2.057,0,0,0,8,8V40a2.057,2.057,0,0,0,2.111,2H37.561a2.057,2.057,0,0,0,2.111-2V8A2.057,2.057,0,0,0,37.561,6Z" transform="translate(327.722 67)"/><path class="c" d="M35.564,8v3a1.028,1.028,0,0,1-1.054,1H6.054A1.028,1.028,0,0,1,5,11V8A2.056,2.056,0,0,1,7.108,6H37.672A2.056,2.056,0,0,0,35.564,8Z" transform="translate(327.328 67)"/><path class="d" d="M32.5,23h-19a.5.5,0,0,0-.5.5v2a.5.5,0,0,0,.5.5h19a.5.5,0,0,0,.5-.5v-2A.5.5,0,0,0,32.5,23Z" transform="translate(328 67)"/><path class="d" d="M32.5,17h-19a.5.5,0,0,0-.5.5v2a.5.5,0,0,0,.5.5h19a.5.5,0,0,0,.5-.5v-2A.5.5,0,0,0,32.5,17Z" transform="translate(328 67)"/><path class="d" d="M30.223,44.915,28,43.433l-2.223,1.482A.5.5,0,0,1,25,44.5V35.433h6V44.5A.5.5,0,0,1,30.223,44.915Z" transform="translate(332 68)"/><path class="c" d="M32.732,33.526l-.35-.21a.669.669,0,0,1-.295-.4l0-.009a.659.659,0,0,1,.053-.5l.2-.357a.553.553,0,0,0-.474-.821l-.412-.007a.668.668,0,0,1-.459-.2.008.008,0,0,0,0,0,.665.665,0,0,1-.2-.459l-.007-.412a.553.553,0,0,0-.821-.474l-.354.2a.669.669,0,0,1-.5.053l-.01,0a.667.667,0,0,1-.4-.3l-.21-.35a.553.553,0,0,0-.948,0l-.209.348a.677.677,0,0,1-.407.3l0,0a.669.669,0,0,1-.506-.053l-.355-.2a.553.553,0,0,0-.821.474l-.008.411a.67.67,0,0,1-.2.459s0,0,0,0a.665.665,0,0,1-.459.2l-.412.007a.553.553,0,0,0-.474.821l.2.357a.669.669,0,0,1,.053.5l0,.009a.671.671,0,0,1-.3.4l-.35.21a.553.553,0,0,0,0,.948l.35.21a.669.669,0,0,1,.3.4l0,.009a.659.659,0,0,1-.053.5l-.2.357a.553.553,0,0,0,.474.821l.412.007a.668.668,0,0,1,.459.2l0,0a.665.665,0,0,1,.2.459l.007.412a.553.553,0,0,0,.821.474l.357-.2a.669.669,0,0,1,.5-.053l.01,0a.667.667,0,0,1,.4.295l.21.35a.553.553,0,0,0,.948,0l.21-.35a.669.669,0,0,1,.4-.295l.01,0a.659.659,0,0,1,.5.053l.357.2a.553.553,0,0,0,.821-.474l.007-.412a.668.668,0,0,1,.2-.459.008.008,0,0,0,0,0,.665.665,0,0,1,.459-.2l.412-.007a.553.553,0,0,0,.474-.821l-.2-.357a.669.669,0,0,1-.053-.5s0-.006,0-.009a.667.667,0,0,1,.295-.4l.35-.21A.555.555,0,0,0,32.732,33.526Z" transform="translate(332 68)"/></g></svg>