<svg xmlns="http://www.w3.org/2000/svg" width="14.2" height="17.7" viewBox="0 0 14.2 17.7"><defs><style>.a{fill:#d5d9e6;stroke:#d5d9e6;stroke-width:0.2px;}</style></defs><path class="a" d="M9.25,2l-.875.875H4v1.75h.875V17.75a1.763,1.763,0,0,0,1.75,1.75h8.75a1.763,1.763,0,0,0,1.75-1.75V4.625H18V2.875H13.625L12.75,2ZM6.625,4.625h8.75V17.75H6.625ZM8.994,7.506,7.756,8.744,9.763,10.75,7.756,12.756l1.237,1.237L11,11.987l2.006,2.006,1.237-1.237L12.237,10.75l2.006-2.006L13.006,7.506,11,9.513Z" transform="translate(-3.9 -1.9)"/></svg>