<svg xmlns="http://www.w3.org/2000/svg" width="14.575" height="14.575" viewBox="0 0 14.575 14.575"><defs><style>.a{fill:#3e89ec;stroke:#3e89ec;stroke-width:0.5px;}</style></defs><path class="a" d="M15.343,3.969a2.359,2.359,0,0,0-1.674.7L4.565,13.776l-.036.18L3.9,17.123l-.18.846.846-.18,3.167-.63.18-.036,9.105-9.105a2.375,2.375,0,0,0-1.674-4.049Zm0,1.1a1.227,1.227,0,0,1,.864.414,1.1,1.1,0,0,1,0,1.728l-.414.4-1.71-1.71.4-.414A1.227,1.227,0,0,1,15.343,5.066ZM13.274,6.7l1.71,1.71L8.02,15.377a3.923,3.923,0,0,0-1.71-1.71Zm-7.7,7.9a2.726,2.726,0,0,1,1.512,1.512l-1.889.378Z" transform="translate(-3.394 -3.719)"/></svg>