<svg xmlns="http://www.w3.org/2000/svg" xmlns:xlink="http://www.w3.org/1999/xlink" width="40" height="40" viewBox="0 0 40 40"><defs><style>.a{opacity:0.9;}.b{fill:#fff;}.c{opacity:0.05;}.d{opacity:0.07;}.e{fill:url(#a);}.f{fill:url(#b);}</style><linearGradient id="a" x1="0.5" y1="1" x2="0.5" gradientUnits="objectBoundingBox"><stop offset="0" stop-color="#2f79dd"/><stop offset="1" stop-color="#3e89ec"/></linearGradient><linearGradient id="b" x1="0.606" x2="0.605" y2="1.088" gradientUnits="objectBoundingBox"><stop offset="0" stop-color="#add0ff"/><stop offset="1" stop-color="#3e89ec"/></linearGradient></defs><g class="a" transform="translate(-149 -73)"><rect class="b" width="40" height="40" transform="translate(149 73)"/><path class="c" d="M22.5,16H15v5h7.5a2.5,2.5,0,0,0,0-5Z" transform="translate(149 75)"/><path class="d" d="M22.5,16.5H15v4h7.5a2,2,0,0,0,0-4Z" transform="translate(149 74.5)"/><path class="e" d="M42,7H16a1,1,0,0,0-1,1V30a1,1,0,0,0,1,1H42a1,1,0,0,0,1-1V8A1,1,0,0,0,42,7Z" transform="translate(145 71)"/><path class="f" d="M5357-136a1,1,0,0,1-1-1v-9a4,4,0,0,1,4-4h13.5a1.5,1.5,0,0,1,1.5,1.5,1.5,1.5,0,0,1-1.5,1.5H5365a1,1,0,0,0-1,1v9a1,1,0,0,1-1,1Zm-1-20a4.011,4.011,0,0,1,4-4,4.011,4.011,0,0,1,4,4,4.012,4.012,0,0,1-4,4A4.012,4.012,0,0,1,5356-156Z" transform="translate(-5206 238)"/><path class="f" d="M9,41a4,4,0,1,1,4-4,4.012,4.012,0,0,1-4,4" transform="translate(145 71)"/><path class="f" d="M19,41a4,4,0,1,1,4-4,4.012,4.012,0,0,1-4,4" transform="translate(145 71)"/><path class="f" d="M29,41a4,4,0,1,1,4-4,4.012,4.012,0,0,1-4,4" transform="translate(145 71)"/><path class="f" d="M39,41a4,4,0,1,1,4-4,4.012,4.012,0,0,1-4,4" transform="translate(145 71)"/></g></svg>