<svg xmlns="http://www.w3.org/2000/svg" xmlns:xlink="http://www.w3.org/1999/xlink" width="40" height="40" viewBox="0 0 40 40"><defs><style>.a{opacity:0.9;}.b{fill:#fff;}.c{fill:url(#a);}.d{fill:url(#b);}.e{fill:#c9e0ff;}</style><linearGradient id="a" x1="0.606" x2="0.605" y2="1.088" gradientUnits="objectBoundingBox"><stop offset="0" stop-color="#add0ff"/><stop offset="1" stop-color="#3e89ec"/></linearGradient><linearGradient id="b" x1="0.5" y1="1" x2="0.5" gradientUnits="objectBoundingBox"><stop offset="0" stop-color="#3e89ec"/><stop offset="1" stop-color="#0e66d9"/></linearGradient></defs><g class="a" transform="translate(-29 -73)"><rect class="b" width="40" height="40" transform="translate(29 73)"/><path class="c" d="M28.5,6h-9A1.5,1.5,0,0,0,18,7.5V9H30V7.5A1.5,1.5,0,0,0,28.5,6Z" transform="translate(25 70)"/><path class="d" d="M40.1,37.818H5.9a1.858,1.858,0,0,1-1.9-1.8V12.6A3.716,3.716,0,0,1,7.8,9H38.2A3.716,3.716,0,0,1,42,12.6V36.016A1.858,1.858,0,0,1,40.1,37.818Z" transform="translate(26 71.182)"/><path class="c" d="M40.382,25.255,23,28,5.618,25.255A1.969,1.969,0,0,1,4,23.278V13A3.915,3.915,0,0,1,7.8,9H38.2A3.915,3.915,0,0,1,42,13V23.278A1.969,1.969,0,0,1,40.382,25.255Z" transform="translate(26 70)"/><rect class="e" width="4" height="4" rx="2" transform="translate(47 90)"/></g></svg>