<svg xmlns="http://www.w3.org/2000/svg" xmlns:xlink="http://www.w3.org/1999/xlink" width="40" height="40" viewBox="0 0 40 40"><defs><style>.a{opacity:0.9;}.b{fill:#fff;}.c{fill:url(#a);}.d{fill:url(#b);}.e{fill:url(#d);}.f{fill:url(#e);}</style><linearGradient id="a" y1="1" x2="0.983" gradientUnits="objectBoundingBox"><stop offset="0" stop-color="#3e89ec"/><stop offset="1" stop-color="#0058cb"/></linearGradient><linearGradient id="b" x1="0.606" x2="0.605" y2="1.088" gradientUnits="objectBoundingBox"><stop offset="0" stop-color="#add0ff"/><stop offset="1" stop-color="#3e89ec"/></linearGradient><linearGradient id="d" x1="0.5" y1="1" x2="0.5" gradientUnits="objectBoundingBox"><stop offset="0" stop-color="#3e89ec"/><stop offset="1" stop-color="#0e66d9"/></linearGradient><linearGradient id="e" x1="0.5" x2="0.5" y2="1" xlink:href="#b"/></defs><g class="a" transform="translate(-272 -73)"><rect class="b" width="40" height="40" transform="translate(272 73)"/><path class="c" d="M39.789,16.289V41.947A2.052,2.052,0,0,1,37.737,44H11.053A2.052,2.052,0,0,1,9,41.947V7.053A2.052,2.052,0,0,1,11.053,5H28.5Z" transform="translate(265 68)"/><path class="d" d="M28,5v9.237a2.052,2.052,0,0,0,2.053,2.053h9.237Z" transform="translate(265.5 68)"/><g transform="translate(1.441 -1.565)"><path class="d" d="M36,36.607c-5.523,0-10,3.161-10,6.609v.991a1.015,1.015,0,0,0,1,1.028H45a1.015,1.015,0,0,0,1-1.028v-.991C46,39.769,41.523,36.607,36,36.607Z" transform="translate(264.559 68.33)"/><path class="e" d="M34.75,40.035l.642.642-.642,4.5h2.57l-.642-4.5.642-.642L36.035,38.75Z" transform="translate(264.529 68.39)"/><path class="f" d="M3.111,15.458V14.6a4.974,4.974,0,0,1-2.058-2.957H.834a.655.655,0,0,1-.618-.588l-.2-1.352A1.109,1.109,0,0,1,.489,8.6,14.443,14.443,0,0,1,0,5.295C0,2.06,1.629,1.058,3.111,1.058c0,0,.412-1.058,3.11-1.058h4.147a5.282,5.282,0,0,1-.093,1A4.809,4.809,0,0,1,12.44,5.295a15.367,15.367,0,0,1-.494,3.3,1.107,1.107,0,0,1,.482,1.111l-.2,1.352a.653.653,0,0,1-.616.588h-.219A4.979,4.979,0,0,1,9.331,14.6v.856A2.91,2.91,0,0,1,6.221,18,2.91,2.91,0,0,1,3.111,15.458Z" transform="translate(294.559 89.565)"/></g></g></svg>