<svg xmlns="http://www.w3.org/2000/svg" width="70" height="70" viewBox="0 0 70 70"><defs><style>.a{fill:#f2f4f9;}.b{fill:none;}.c{fill:#bfc4d3;}</style></defs><g transform="translate(5193 2702)"><rect class="a" width="70" height="70" rx="35" transform="translate(-5193 -2702)"/><path class="b" d="M0,0H24V24H0Z" transform="translate(-5170 -2679)"/><path class="c" d="M20,5H4V19l9.292-9.294a1,1,0,0,1,1.414,0L20,15.01ZM2,3.993A1,1,0,0,1,2.992,3H21.008A.993.993,0,0,1,22,3.993V20.007a1,1,0,0,1-.992.993H2.992A.993.993,0,0,1,2,20.007ZM8,11a2,2,0,1,1,2-2A2,2,0,0,1,8,11Z" transform="translate(-5170 -2679)"/></g></svg>