<svg xmlns="http://www.w3.org/2000/svg" width="60" height="60" viewBox="0 0 60 60"><defs><style>.a{fill:none;}.b{fill:#bfc4d3;}</style></defs><path class="a" d="M0,0H60V60H0Z"/><path class="b" d="M42.9,7.241H6.545V36.929L27.659,17.221a2.389,2.389,0,0,1,3.213,0L42.9,28.468ZM2,5.106A2.2,2.2,0,0,1,4.254,3H45.193a2.184,2.184,0,0,1,2.254,2.106V39.065a2.2,2.2,0,0,1-2.254,2.106H4.254A2.185,2.185,0,0,1,2,39.065ZM15.634,19.965a4.4,4.4,0,0,1-4.545-4.241,4.4,4.4,0,0,1,4.545-4.241,4.4,4.4,0,0,1,4.545,4.241A4.4,4.4,0,0,1,15.634,19.965Z" transform="translate(5.277 7.915)"/></svg>