<svg xmlns="http://www.w3.org/2000/svg" xmlns:xlink="http://www.w3.org/1999/xlink" width="40" height="40" viewBox="0 0 40 40"><defs><style>.a{opacity:0.9;}.b{fill:#fff;}.c{fill:url(#a);}.d{fill:url(#b);}.e{fill:#c9e0ff;}</style><linearGradient id="a" x1="0.178" y1="1" x2="0.973" gradientUnits="objectBoundingBox"><stop offset="0" stop-color="#2f79dd"/><stop offset="1" stop-color="#3e89ec"/></linearGradient><linearGradient id="b" x1="0.606" x2="0.605" y2="1.088" gradientUnits="objectBoundingBox"><stop offset="0" stop-color="#add0ff"/><stop offset="1" stop-color="#3e89ec"/></linearGradient></defs><g class="a" transform="translate(-89 -73)"><rect class="b" width="40" height="40" transform="translate(89 73)"/><path class="c" d="M4,10H38.2A1.78,1.78,0,0,1,40,11.76V34.64a1.78,1.78,0,0,1-1.8,1.76H10.3A6.231,6.231,0,0,1,4,30.24Z" transform="translate(87 73)"/><path class="d" d="M11,26h2a2,2,0,0,0,2-2V6a2,2,0,0,0-2-2H11a7,7,0,0,0-7,7V33A7,7,0,0,1,11,26Z" transform="translate(87 71)"/><path class="e" d="M5356.5-144.452a.5.5,0,0,1-.5-.5v-1a.5.5,0,0,1,.5-.5h19a.5.5,0,0,1,.5.5v1a.5.5,0,0,1-.5.5Zm1.051-4.676-.707-.707a.5.5,0,0,1,0-.707l6.5-6.5a.5.5,0,0,1,.707,0l3.646,3.646,4.2-4.2-1.55-1.55a.5.5,0,0,1,.352-.854h4.293a.5.5,0,0,1,.5.5v4.293a.5.5,0,0,1-.853.353l-1.329-1.329-5.259,5.259a.5.5,0,0,1-.707,0l-3.646-3.646-5.439,5.44a.5.5,0,0,1-.354.147A.5.5,0,0,1,5357.551-149.128Z" transform="translate(-5253.8 247.593)"/></g></svg>