<svg xmlns="http://www.w3.org/2000/svg" xmlns:xlink="http://www.w3.org/1999/xlink" width="17.895" height="28.679" viewBox="0 0 17.895 28.679"><defs><style>.a{fill:#fff;}.b{filter:url(#a);}</style><filter id="a" x="0" y="0" width="17.895" height="28.679" filterUnits="userSpaceOnUse"><feOffset input="SourceAlpha"/><feGaussianBlur stdDeviation="1" result="b"/><feFlood flood-opacity="0.161"/><feComposite operator="in" in2="b"/><feComposite in="SourceGraphic"/></filter></defs><g class="b" transform="matrix(1, 0, 0, 1, 0, 0)"><path class="a" d="M21.994,28.6a5.777,5.777,0,0,1-.314-1.8c0-4.345,4.473-4.512,4.473-7.735a2.193,2.193,0,0,0-2.364-2.154,7.577,7.577,0,0,0-4.8,1.96v-4.5A10.1,10.1,0,0,1,24.313,13c6.486,0,6.568,4.458,6.568,5.416,0,5.146-5.311,5.528-5.311,8.827a2.641,2.641,0,0,0,.359,1.361H21.994Zm2.182,7.074a2.27,2.27,0,1,1,0-4.507,2.266,2.266,0,1,1,0,4.507Z" transform="translate(-15.99 -10)"/></g></svg>