<svg xmlns="http://www.w3.org/2000/svg" xmlns:xlink="http://www.w3.org/1999/xlink" width="42" height="40" viewBox="0 0 42 40"><defs><style>.a{opacity:0.9;}.b{fill:#fff;}.c{fill:url(#a);}.d{fill:url(#b);}</style><linearGradient id="a" x1="0.606" x2="0.605" y2="1.088" gradientUnits="objectBoundingBox"><stop offset="0" stop-color="#add0ff"/><stop offset="1" stop-color="#3e89ec"/></linearGradient><linearGradient id="b" x1="0.5" y1="1" x2="0.5" gradientUnits="objectBoundingBox"><stop offset="0" stop-color="#3e89ec"/><stop offset="1" stop-color="#0e66d9"/></linearGradient></defs><g class="a" transform="translate(-209 -73)"><rect class="b" width="40" height="40" transform="translate(210 73)"/><g transform="translate(29 -50)"><path class="c" d="M5356-154l12.373-5.732c.051-.026.1-.05.156-.072l.012-.006h0a2.5,2.5,0,0,1,.959-.191,2.5,2.5,0,0,1,2.5,2.5,2.5,2.5,0,0,1-1.488,2.287l-14.3,7.9Z" transform="translate(-5153 308)"/><path class="d" d="M45,32.5a2.5,2.5,0,0,0-3.459-2.308h0l-.011,0-.006,0L29,36l-1.5-1a2.493,2.493,0,0,0,1.233-4.663l0-.016L15.086,23.455h-.025a4.915,4.915,0,0,0-4.076-.025h-.022L3,27V40l8.09-3.718L27,42.79h0a2.44,2.44,0,0,0,2.193-.107h.017l14.469-7.989v0A2.488,2.488,0,0,0,45,32.5Z" transform="translate(177 119)"/><circle class="c" cx="1.5" cy="1.5" r="1.5" transform="translate(203 150)"/><path class="c" d="M31,7.75S33.462,5,36.5,5A5.521,5.521,0,0,1,42,10.5c0,5.17-8.1,11.072-10.4,12.642a1.06,1.06,0,0,1-1.2,0C28.1,21.572,20,15.67,20,10.5A5.521,5.521,0,0,1,25.5,5C28.538,5,31,7.75,31,7.75Z" transform="translate(177 119)"/></g></g></svg>