<svg xmlns="http://www.w3.org/2000/svg" width="18" height="18" viewBox="0 0 18 18"><defs><style>.a{fill:none;}.b{fill:#bfc4d3;}</style></defs><path class="a" d="M0,0H18V18H0Z"/><path class="b" d="M3.964,7.191a.724.724,0,0,1,.741.706A5.329,5.329,0,0,1,7.914,8.956H9.522a3.4,3.4,0,0,1,2.485,1.059h2.332a3.724,3.724,0,0,1,3.346,2.013,9.922,9.922,0,0,1-7.793,3.636,11.135,11.135,0,0,1-5.232-1.171.739.739,0,0,1-.7.465H1.741A.724.724,0,0,1,1,14.253V7.9a.724.724,0,0,1,.741-.706Zm.742,2.119v3.546l.033.023a9.137,9.137,0,0,0,5.154,1.374,8.546,8.546,0,0,0,5.806-2.21l.1-.094-.089-.071a2.284,2.284,0,0,0-1.218-.445l-.152,0H12.773a3.051,3.051,0,0,1,.083.707v.706H6.187V11.428h5.032l-.025-.055a1.856,1.856,0,0,0-1.55-1l-.122,0H7.351A3.786,3.786,0,0,0,4.707,9.309ZM3.223,8.6H2.482v4.943h.741ZM10.371,3.36l.262.251.262-.25a1.918,1.918,0,0,1,2.62,0,1.707,1.707,0,0,1,0,2.5L10.633,8.6,7.751,5.856a1.707,1.707,0,0,1,0-2.5,1.918,1.918,0,0,1,2.62,0Zm-1.571,1a.341.341,0,0,0-.044.45l.043.049L10.633,6.6l1.835-1.747a.341.341,0,0,0,.043-.451l-.043-.049A.384.384,0,0,0,12,4.317l-.052.041L10.633,5.607,9.323,4.357l-.05-.04a.384.384,0,0,0-.473.041Z" transform="translate(-0.114 -0.323)"/></svg>