<svg xmlns="http://www.w3.org/2000/svg" width="14.2" height="17.7" viewBox="0 0 14.2 17.7">
    <path id="icons8-delete-bin" fill="#d5d9e6" stroke="#d5d9e6" stroke-width="0.2px" d="M9.25 2l-.875.875H4v1.75h.875V17.75a1.763 1.763 0 0 0 1.75 1.75h8.75a1.763 1.763 0 0 0 1.75-1.75V4.625H18v-1.75h-4.375L12.75 2zM6.625 4.625h8.75V17.75h-8.75zm2.369 2.881L7.756 8.744l2.007 2.006-2.007 2.006 1.237 1.237L11 11.987l2.006 2.006 1.237-1.237-2.006-2.006 2.006-2.006-1.237-1.238L11 9.513z" transform="translate(-3.9 -1.9)"/>
</svg>
