<svg xmlns="http://www.w3.org/2000/svg" width="14.575" height="14.575" viewBox="0 0 14.575 14.575">
    <path id="icons8-edit_1_" fill="#3e89ec" stroke="#3e89ec" stroke-width="0.5px" d="M15.343 3.969a2.359 2.359 0 0 0-1.674.7l-9.104 9.107-.036.18-.629 3.167-.18.846.846-.18 3.167-.63.18-.036 9.105-9.105a2.375 2.375 0 0 0-1.674-4.049zm0 1.1a1.227 1.227 0 0 1 .864.414 1.1 1.1 0 0 1 0 1.728l-.414.4-1.71-1.71.4-.414a1.227 1.227 0 0 1 .86-.421zM13.274 6.7l1.71 1.71-6.964 6.967a3.923 3.923 0 0 0-1.71-1.71zm-7.7 7.9a2.726 2.726 0 0 1 1.512 1.512l-1.889.378z" data-name="icons8-edit (1)" transform="translate(-3.394 -3.719)"/>
</svg>
